<svg version="1.2" xmlns="http://www.w3.org/2000/svg" viewBox="0 0 52 47" width="52" height="47">
	<title>larrow</title>
	<defs>
		<clipPath clipPathUnits="userSpaceOnUse" id="cp1">
			<path d="m-18.16-277.12h6.65v13.86h-6.65z"/>
		</clipPath>
		<clipPath clipPathUnits="userSpaceOnUse" id="cp2">
			<path d="m-14.46-275.97l-8.89-5.22 8.09-5.17 8.89 5.22-8.09 5.17z"/>
		</clipPath>
		<clipPath clipPathUnits="userSpaceOnUse" id="cp3">
			<path d="m175.68-276.67h6.65v13.25h-6.65z"/>
		</clipPath>
		<clipPath clipPathUnits="userSpaceOnUse" id="cp4">
			<path d="m-6.7-282.59h177.74v2.84h-177.74z"/>
		</clipPath>
		<clipPath clipPathUnits="userSpaceOnUse" id="cp5">
			<path d="m-6.7-260.31h177.74v2.84h-177.74z"/>
		</clipPath>
	</defs>
	<style>
		.s0 { fill: #231f20 } 
		.s1 { fill: none;stroke: #231f20;stroke-miterlimit:10 } 
		.s2 { fill: none;stroke: #231f20;stroke-miterlimit:10;stroke-width: .5 } 
	</style>
	<path class="s0" d="m31.8 23.2c-4-0.2-7.4-1.6-9.1-4.1-1.7-2.7-1-5.9-0.7-7q0.3-1.4 0.9-2.7c-2.4 3.5-5.7 7.9-10.3 10-5.6 2.7-12.1 3.1-12.1 3.1 0 0 0.9 0.2 2.3 0.6 0 0 3.5 0.6 8.9 3.7 5.2 3.1 7 7.6 9.4 11.4-0.6-1.2-0.9-2.5-0.8-3.9 0.2-1.2-0.2-3.7 2.2-5.6 2.4-2 5.1-2.9 9.2-2.7z"/>
	<path class="s0" d="m31.7 26q0.9 0 2 0.1c4.3 0.5 10.2 0.7 13.3 3.9 2.7 2.8 2.9 3.8 3.4 5.8l0.7-26.2c-0.5 2.1-1.6 5.3-4.3 8-3.9 4-9.8 5.8-15 5.6z"/>
	<path class="s1" d="m21.1 38.2c-0.6-1.2-0.9-2.5-0.8-3.9 0.2-1.2-0.1-3.7 2.2-5.7 2.4-1.9 5.1-2.8 9.2-2.6q0.9 0 2 0.1c4.3 0.5 10.2 0.7 13.3 3.9 2.7 2.8 2.9 3.8 3.4 5.8l0.7-26.2c-0.5 2.1-1.6 5.3-4.3 8-3.9 4-9.8 5.8-15 5.6-4-0.2-7.4-1.6-9.1-4.1-1.7-2.7-1-5.9-0.7-7.1q0.3-1.3 0.9-2.6c3-6.4 11-10.5 15.1-8.3 2.1 1.2 3.1 4.2 3.1 6.6-0.1 2.5-1.5 5.7-4.6 6.8-2.6 0.9-6.5 0.2-7.6-2.7-0.4-1.1-0.3-2.3 0.1-3.4 0.7-1.8 2.3-3.4 4-3.6 1.4-0.2 3.4 0.5 4 2.2 0.4 1.1 0.1 2.6-0.9 3.4-1.3 0.8-3.2 0.5-4.3-1"/>
	<path class="s1" d="m30.1 37c1.1-1.5 3.1-1.8 4.3-1 1.1 0.8 1.3 2.3 1 3.4-0.6 1.7-2.7 2.4-4.1 2.2-1.7-0.2-3.3-1.8-4-3.6-0.4-1.1-0.5-2.3 0-3.4 1-2.9 4.9-3.6 7.6-2.7 3 1.1 4.4 4.3 4.5 6.8 0.1 2.4-0.9 5.4-3.1 6.6-3.1 1.6-9.7-0.6-13.3-4.5q-1.2-1.2-1.9-2.6"/>
	<path class="s1" d="m25.8 5.3c-0.8 0.9-1.7 2.4-2.9 4.1-2.4 3.5-5.7 7.9-10.3 10-5.6 2.7-12.1 3.1-12.1 3.1 0 0 0.9 0.2 2.3 0.6 0 0 3.5 0.6 8.9 3.7 5.2 3.1 7 7.6 9.4 11.4q0 0 0 0c0.6 0.9 1.2 1.8 1.9 2.6q0.1 0.1 0.2 0.3"/>
	<g id="Clip-Path" clip-path="url(#cp1)">
	</g>
	<path fill-rule="evenodd" class="s2" d="m-18.2-277.1h6.7v13.8h-6.7z"/>
	<g id="Clip-Path" clip-path="url(#cp2)">
	</g>
	<path fill-rule="evenodd" class="s2" d="m-14.5-276l-8.9-5.2 8.1-5.2 8.9 5.3-8.1 5.1z"/>
	<g id="Clip-Path" clip-path="url(#cp3)">
	</g>
	<path fill-rule="evenodd" class="s2" d="m175.7-276.7h6.6v13.3h-6.6z"/>
	<g id="Clip-Path" clip-path="url(#cp4)">
	</g>
	<path fill-rule="evenodd" class="s2" d="m-6.7-282.6h177.7v2.9h-177.7z"/>
	<g id="Clip-Path" clip-path="url(#cp5)">
	</g>
	<path fill-rule="evenodd" class="s2" d="m-6.7-260.3h177.7v2.8h-177.7z"/>
</svg>