<svg width="222" height="125" viewBox="0 0 222 125" fill="none" xmlns="http://www.w3.org/2000/svg">
<path d="M15.6635 27.2201L110.328 49.9928L83.1977 97.1394L15.6635 27.2201Z" fill="#04010B"/>
<ellipse cx="130" cy="75.5" rx="92" ry="48.5" fill="#07030E"/>
<path d="M99.5099 40.344C99.8299 40.344 100.091 40.4613 100.294 40.696C100.507 40.9307 100.614 41.224 100.614 41.576C100.614 41.8213 100.539 42.056 100.39 42.28C100.241 42.4933 100.054 42.664 99.8299 42.792C99.6059 42.92 99.3872 42.984 99.1739 42.984C98.8539 42.984 98.5872 42.8667 98.3739 42.632C98.1712 42.3973 98.0699 42.104 98.0699 41.752C98.0699 41.5067 98.1445 41.2773 98.2939 41.064C98.4432 40.84 98.6299 40.664 98.8539 40.536C99.0779 40.408 99.2965 40.344 99.5099 40.344ZM100.726 52.264L98.5499 53.064H97.9419L98.7899 44.376H99.7499L100.726 51.768V52.264ZM118.944 52.04C117.28 52.8293 116.133 53.224 115.504 53.224C115.109 53.224 114.501 52.8027 113.68 51.96C112.869 51.128 111.947 50.1093 110.912 48.904C110.197 49.1813 109.515 49.32 108.864 49.32C107.733 49.32 106.731 49.0533 105.856 48.52C104.992 47.976 104.32 47.224 103.84 46.264C103.36 45.304 103.12 44.216 103.12 43C103.12 41.752 103.483 40.6 104.208 39.544C104.933 38.4773 105.835 37.64 106.912 37.032C107.989 36.4133 109.019 36.104 110 36.104C111.131 36.104 112.128 36.376 112.992 36.92C113.867 37.464 114.544 38.216 115.024 39.176C115.504 40.136 115.744 41.224 115.744 42.44C115.744 43.6667 115.392 44.8027 114.688 45.848C113.984 46.8933 113.093 47.7307 112.016 48.36C113.019 49.1173 113.957 49.8 114.832 50.408C115.717 51.016 116.256 51.32 116.448 51.32H118.608L118.944 52.04ZM105.296 42.232C105.296 43.2773 105.461 44.2373 105.792 45.112C106.123 45.976 106.624 46.6693 107.296 47.192C107.979 47.7147 108.816 47.976 109.808 47.976C110.512 47.976 111.152 47.7733 111.728 47.368C112.315 46.952 112.773 46.3813 113.104 45.656C113.435 44.92 113.6 44.0987 113.6 43.192C113.6 42.136 113.435 41.176 113.104 40.312C112.773 39.4373 112.272 38.744 111.6 38.232C110.928 37.7093 110.091 37.448 109.088 37.448C108.384 37.448 107.739 37.656 107.152 38.072C106.576 38.4773 106.123 39.048 105.792 39.784C105.461 40.5093 105.296 41.3253 105.296 42.232ZM127.163 49H124.123V47.336L122.091 49.032C121.867 49.1173 121.574 49.16 121.211 49.16C120.486 49.16 119.91 48.9413 119.483 48.504C119.057 48.056 118.843 47.4533 118.843 46.696V42.872L117.419 42.04V41.544L120.155 40.2H120.763V45.896C120.763 46.4827 120.854 46.8933 121.035 47.128C121.217 47.3627 121.542 47.48 122.011 47.48C122.342 47.48 122.667 47.4213 122.987 47.304C123.307 47.176 123.686 46.9307 124.123 46.568V42.872L122.699 42.04V41.544L125.435 40.2H126.043V47.8L127.483 48.36L127.163 49ZM133.391 49H128.927V48.504L130.351 47.384V42.712L128.927 41.72V41.224L131.663 40.2H132.271V47.8L133.711 48.36L133.391 49ZM131.247 35.4C131.567 35.4 131.828 35.5173 132.031 35.752C132.244 35.9867 132.351 36.28 132.351 36.632C132.351 36.8773 132.276 37.112 132.127 37.336C131.978 37.5493 131.791 37.72 131.567 37.848C131.343 37.976 131.124 38.04 130.911 38.04C130.591 38.04 130.324 37.9227 130.111 37.688C129.908 37.4533 129.807 37.16 129.807 36.808C129.807 36.5627 129.882 36.3333 130.031 36.12C130.18 35.896 130.367 35.72 130.591 35.592C130.815 35.464 131.034 35.4 131.247 35.4ZM140.602 49.032C140.175 49.1173 139.663 49.16 139.066 49.16C138.362 49.16 137.727 48.9787 137.162 48.616C136.607 48.2427 136.17 47.7413 135.85 47.112C135.54 46.4827 135.386 45.7893 135.386 45.032C135.386 44.2107 135.636 43.4427 136.138 42.728C136.639 42.0027 137.263 41.4267 138.01 41C138.767 40.5627 139.498 40.344 140.202 40.344C141.215 40.344 141.999 40.744 142.554 41.544C143.119 42.344 143.402 43.4 143.402 44.712H137.482C137.546 45.6187 137.791 46.36 138.218 46.936C138.655 47.512 139.247 47.8 139.994 47.8C140.687 47.8 141.674 47.2613 142.954 46.184L143.434 46.792L140.602 49.032ZM139.274 41.688C138.122 41.688 137.519 42.4773 137.466 44.056H141.21C141.114 43.48 141.012 43.0427 140.906 42.744C140.81 42.4347 140.634 42.184 140.378 41.992C140.132 41.7893 139.764 41.688 139.274 41.688ZM151.203 40.36C151.555 40.36 151.864 40.456 152.131 40.648C152.398 40.84 152.606 41.1067 152.755 41.448L151.699 42.776H151.091C151.048 42.5093 150.968 42.3227 150.851 42.216C150.744 42.0987 150.595 42.04 150.403 42.04C150.168 42.04 149.918 42.104 149.651 42.232C149.395 42.3493 149.102 42.5787 148.771 42.92V47.688L151.011 48.376L150.691 49.016H145.427V48.52L146.851 47.4V42.872L145.427 42.04V41.544L148.163 40.2L148.659 42.168L150.323 40.472C150.547 40.3867 150.84 40.344 151.203 40.344V40.36ZM158.78 40.344C159.484 40.344 160.113 40.5307 160.668 40.904C161.233 41.2667 161.67 41.7627 161.98 42.392C162.3 43.0213 162.46 43.7147 162.46 44.472C162.46 45.2933 162.209 46.0667 161.708 46.792C161.206 47.5067 160.577 48.0827 159.82 48.52C159.073 48.9467 158.348 49.16 157.644 49.16C156.94 49.16 156.305 48.9787 155.74 48.616C155.185 48.2427 154.748 47.7413 154.428 47.112C154.118 46.4827 153.964 45.7893 153.964 45.032C153.964 44.2107 154.214 43.4427 154.716 42.728C155.217 42.0027 155.841 41.4267 156.588 41C157.345 40.5627 158.076 40.344 158.78 40.344ZM157.852 41.688C156.646 41.688 156.044 42.5467 156.044 44.264C156.044 45.2773 156.262 46.1253 156.7 46.808C157.137 47.48 157.761 47.816 158.572 47.816C159.777 47.816 160.38 46.952 160.38 45.224C160.38 44.2213 160.161 43.384 159.724 42.712C159.286 42.0293 158.662 41.688 157.852 41.688ZM101.419 70.136L100.939 70.296L98.8106 67.144H96.8586V77.784L98.5386 78.36L98.2186 79H93.3546V78.504L94.8586 77.32V67.144H92.9546L90.8266 70.296L90.3466 70.136V66.136L91.2106 66.424H100.555L101.419 66.136V70.136ZM110.318 79H107.278V77.608L105.47 79.032C105.256 79.1173 104.99 79.16 104.67 79.16C103.752 79.16 103.086 78.9307 102.67 78.472C102.264 78.0133 102.062 77.464 102.062 76.824C102.062 76.44 102.2 76.0613 102.478 75.688C102.755 75.3147 103.15 74.9627 103.662 74.632H107.278V73.608C107.278 72.9147 107.091 72.424 106.718 72.136C106.355 71.848 105.854 71.704 105.214 71.704C104.552 71.704 103.742 72.104 102.782 72.904L102.302 72.296L104.606 70.472C105.032 70.3867 105.544 70.344 106.142 70.344C107.112 70.344 107.864 70.584 108.398 71.064C108.931 71.5333 109.198 72.2213 109.198 73.128V77.8L110.638 78.36L110.318 79ZM105.182 77.8C105.832 77.8 106.531 77.5013 107.278 76.904V75.288H104.446C104.307 75.4587 104.206 75.6293 104.142 75.8C104.088 75.9707 104.062 76.1573 104.062 76.36C104.062 76.7547 104.163 77.096 104.366 77.384C104.568 77.6613 104.84 77.8 105.182 77.8ZM116.655 70.344C117.092 70.344 117.599 70.408 118.175 70.536C118.762 70.6533 119.183 70.7867 119.439 70.936V73.4H118.831C118.415 72.8667 117.935 72.4507 117.391 72.152C116.858 71.8427 116.303 71.688 115.727 71.688C115.236 71.688 114.863 71.9067 114.607 72.344C114.362 72.7813 114.239 73.4213 114.239 74.264C114.239 75.2667 114.458 76.1093 114.895 76.792C115.332 77.464 115.956 77.8 116.767 77.8C117.375 77.8 118.239 77.3627 119.359 76.488L119.839 77.096L117.375 79.032C116.948 79.1173 116.436 79.16 115.839 79.16C115.135 79.16 114.5 78.9787 113.935 78.616C113.38 78.2427 112.943 77.7413 112.623 77.112C112.314 76.4827 112.159 75.7893 112.159 75.032C112.159 74.2107 112.388 73.4373 112.847 72.712C113.316 71.9867 113.903 71.4107 114.607 70.984C115.311 70.5573 115.994 70.344 116.655 70.344ZM126.788 70.344C127.492 70.344 128.121 70.5307 128.676 70.904C129.241 71.2667 129.678 71.7627 129.988 72.392C130.308 73.0213 130.468 73.7147 130.468 74.472C130.468 75.2933 130.217 76.0667 129.716 76.792C129.214 77.5067 128.585 78.0827 127.828 78.52C127.081 78.9467 126.356 79.16 125.652 79.16C124.948 79.16 124.313 78.9787 123.748 78.616C123.193 78.2427 122.756 77.7413 122.436 77.112C122.126 76.4827 121.972 75.7893 121.972 75.032C121.972 74.2107 122.222 73.4427 122.724 72.728C123.225 72.0027 123.849 71.4267 124.596 71C125.353 70.5627 126.084 70.344 126.788 70.344ZM125.86 71.688C124.654 71.688 124.052 72.5467 124.052 74.264C124.052 75.2773 124.27 76.1253 124.708 76.808C125.145 77.48 125.769 77.816 126.58 77.816C127.785 77.816 128.388 76.952 128.388 75.224C128.388 74.2213 128.169 73.384 127.732 72.712C127.294 72.0293 126.67 71.688 125.86 71.688ZM145.079 72.232C145.9 72.4667 146.545 72.8613 147.015 73.416C147.484 73.9707 147.719 74.6107 147.719 75.336C147.719 76.008 147.447 76.6427 146.903 77.24C146.369 77.8267 145.697 78.296 144.887 78.648C144.087 79 143.324 79.176 142.599 79.176C142.065 79.176 141.543 79.1493 141.031 79.096C140.177 79.0427 139.516 79.016 139.047 79.016H137.015V78.52L138.519 77.336V67.608L136.855 67.064L137.175 66.424H139.031C140.001 66.424 140.956 66.392 141.895 66.328C142.62 66.2853 143.153 66.264 143.495 66.264C144.209 66.264 144.839 66.4027 145.383 66.68C145.927 66.9573 146.343 67.336 146.631 67.816C146.929 68.2853 147.079 68.8133 147.079 69.4C147.079 69.9333 146.892 70.4453 146.519 70.936C146.156 71.416 145.676 71.8373 145.079 72.2V72.232ZM144.919 70.2C144.919 69.3573 144.695 68.6693 144.247 68.136C143.799 67.6027 143.132 67.336 142.247 67.336C141.607 67.336 141.031 67.5173 140.519 67.88V72.12H142.807C143.468 72.12 143.985 71.9547 144.359 71.624C144.732 71.2827 144.919 70.8027 144.919 70.184V70.2ZM143.047 78.008C143.815 78.008 144.423 77.816 144.871 77.432C145.329 77.048 145.559 76.5307 145.559 75.88C145.559 75.048 145.313 74.376 144.823 73.864C144.343 73.352 143.623 73.08 142.663 73.048C142.588 73.0587 142.487 73.064 142.359 73.064H140.519V77.592C141.233 77.88 142.076 78.024 143.047 78.024V78.008ZM155.016 79.032C154.589 79.1173 154.077 79.16 153.48 79.16C152.776 79.16 152.141 78.9787 151.576 78.616C151.021 78.2427 150.584 77.7413 150.264 77.112C149.954 76.4827 149.8 75.7893 149.8 75.032C149.8 74.2107 150.05 73.4427 150.552 72.728C151.053 72.0027 151.677 71.4267 152.424 71C153.181 70.5627 153.912 70.344 154.616 70.344C155.629 70.344 156.413 70.744 156.968 71.544C157.533 72.344 157.816 73.4 157.816 74.712H151.896C151.96 75.6187 152.205 76.36 152.632 76.936C153.069 77.512 153.661 77.8 154.408 77.8C155.101 77.8 156.088 77.2613 157.368 76.184L157.848 76.792L155.016 79.032ZM153.688 71.688C152.536 71.688 151.933 72.4773 151.88 74.056H155.624C155.528 73.48 155.426 73.0427 155.32 72.744C155.224 72.4347 155.048 72.184 154.792 71.992C154.546 71.7893 154.178 71.688 153.688 71.688ZM163.985 79H159.521V78.504L160.945 77.384V67.544L159.521 66.552V66.056L162.257 65.032H162.865V77.8L164.305 78.36L163.985 79ZM169.891 79H165.427V78.504L166.851 77.384V67.544L165.427 66.552V66.056L168.163 65.032H168.771V77.8L170.211 78.36L169.891 79ZM104.934 100.136L104.454 100.296L102.326 97.144H100.374V107.784L102.054 108.36L101.734 109H96.8702V108.504L98.3742 107.32V97.144H96.4702L94.3422 100.296L93.8622 100.136V96.136L94.7262 96.424H104.07L104.934 96.136V100.136ZM110.225 100.344C110.929 100.344 111.558 100.531 112.113 100.904C112.678 101.267 113.116 101.763 113.425 102.392C113.745 103.021 113.905 103.715 113.905 104.472C113.905 105.293 113.654 106.067 113.153 106.792C112.652 107.507 112.022 108.083 111.265 108.52C110.518 108.947 109.793 109.16 109.089 109.16C108.385 109.16 107.75 108.979 107.185 108.616C106.63 108.243 106.193 107.741 105.873 107.112C105.564 106.483 105.409 105.789 105.409 105.032C105.409 104.211 105.66 103.443 106.161 102.728C106.662 102.003 107.286 101.427 108.033 101C108.79 100.563 109.521 100.344 110.225 100.344ZM109.297 101.688C108.092 101.688 107.489 102.547 107.489 104.264C107.489 105.277 107.708 106.125 108.145 106.808C108.582 107.48 109.206 107.816 110.017 107.816C111.222 107.816 111.825 106.952 111.825 105.224C111.825 104.221 111.606 103.384 111.169 102.712C110.732 102.029 110.108 101.688 109.297 101.688ZM125.567 109H122.527V107.848L121.039 109.032C120.698 109.117 120.287 109.16 119.807 109.16C119.103 109.16 118.469 108.979 117.903 108.616C117.349 108.243 116.911 107.741 116.591 107.112C116.282 106.483 116.127 105.789 116.127 105.032C116.127 104.211 116.378 103.443 116.879 102.728C117.381 102.003 118.005 101.427 118.751 101C119.509 100.563 120.239 100.344 120.943 100.344C121.53 100.344 122.063 100.509 122.543 100.84V97.544L121.119 96.552V96.056L123.855 95.032H124.463V107.8L125.887 108.36L125.567 109ZM120.623 107.8C120.943 107.8 121.247 107.757 121.535 107.672C121.834 107.576 122.165 107.4 122.527 107.144V103.496C122.463 102.963 122.213 102.531 121.775 102.2C121.349 101.859 120.762 101.688 120.015 101.688C118.81 101.688 118.207 102.547 118.207 104.264C118.207 105.267 118.415 106.109 118.831 106.792C119.247 107.464 119.845 107.8 120.623 107.8ZM135.521 109H132.481V107.608L130.673 109.032C130.459 109.117 130.193 109.16 129.873 109.16C128.955 109.16 128.289 108.931 127.873 108.472C127.467 108.013 127.265 107.464 127.265 106.824C127.265 106.44 127.403 106.061 127.681 105.688C127.958 105.315 128.353 104.963 128.865 104.632H132.481V103.608C132.481 102.915 132.294 102.424 131.921 102.136C131.558 101.848 131.057 101.704 130.417 101.704C129.755 101.704 128.945 102.104 127.985 102.904L127.505 102.296L129.809 100.472C130.235 100.387 130.747 100.344 131.345 100.344C132.315 100.344 133.067 100.584 133.601 101.064C134.134 101.533 134.401 102.221 134.401 103.128V107.8L135.841 108.36L135.521 109ZM130.385 107.8C131.035 107.8 131.734 107.501 132.481 106.904V105.288H129.649C129.51 105.459 129.409 105.629 129.345 105.8C129.291 105.971 129.265 106.157 129.265 106.36C129.265 106.755 129.366 107.096 129.569 107.384C129.771 107.661 130.043 107.8 130.385 107.8ZM145.57 101L141.522 109H140.306L137.81 102.904L136.322 102.04V101.544L139.058 100.2L139.666 102.616L141.618 107.384L143.874 102.696L141.746 101.144L142.066 100.504H145.57V101ZM150.867 109H146.403V108.504L147.827 107.384V102.712L146.403 101.72V101.224L149.139 100.2H149.747V107.8L151.187 108.36L150.867 109ZM148.723 95.4C149.043 95.4 149.305 95.5173 149.507 95.752C149.721 95.9867 149.827 96.28 149.827 96.632C149.827 96.8773 149.753 97.112 149.603 97.336C149.454 97.5493 149.267 97.72 149.043 97.848C148.819 97.976 148.601 98.04 148.387 98.04C148.067 98.04 147.801 97.9227 147.587 97.688C147.385 97.4533 147.283 97.16 147.283 96.808C147.283 96.5627 147.358 96.3333 147.507 96.12C147.657 95.896 147.843 95.72 148.067 95.592C148.291 95.464 148.51 95.4 148.723 95.4ZM160.958 109H157.918V107.608L156.11 109.032C155.897 109.117 155.63 109.16 155.31 109.16C154.393 109.16 153.726 108.931 153.31 108.472C152.905 108.013 152.702 107.464 152.702 106.824C152.702 106.44 152.841 106.061 153.118 105.688C153.396 105.315 153.79 104.963 154.302 104.632H157.918V103.608C157.918 102.915 157.732 102.424 157.358 102.136C156.996 101.848 156.494 101.704 155.854 101.704C155.193 101.704 154.382 102.104 153.422 102.904L152.942 102.296L155.246 100.472C155.673 100.387 156.185 100.344 156.782 100.344C157.753 100.344 158.505 100.584 159.038 101.064C159.572 101.533 159.838 102.221 159.838 103.128V107.8L161.278 108.36L160.958 109ZM155.822 107.8C156.473 107.8 157.172 107.501 157.918 106.904V105.288H155.086C154.948 105.459 154.846 105.629 154.782 105.8C154.729 105.971 154.702 106.157 154.702 106.36C154.702 106.755 154.804 107.096 155.006 107.384C155.209 107.661 155.481 107.8 155.822 107.8ZM163.936 105.112L162.96 97.72V97.224L165.136 96.424H165.744L164.896 105.112H163.936ZM164.576 106.52C164.896 106.52 165.157 106.637 165.36 106.872C165.573 107.107 165.68 107.4 165.68 107.752C165.68 107.997 165.605 108.232 165.456 108.456C165.306 108.669 165.12 108.84 164.896 108.968C164.672 109.096 164.453 109.16 164.24 109.16C163.92 109.16 163.653 109.043 163.44 108.808C163.237 108.573 163.136 108.28 163.136 107.928C163.136 107.683 163.21 107.453 163.36 107.24C163.509 107.016 163.696 106.84 163.92 106.712C164.144 106.584 164.362 106.52 164.576 106.52Z" fill="#E0E278"/>
</svg>
