<svg version="1.2" xmlns="http://www.w3.org/2000/svg" viewBox="0 0 52 47" width="52" height="47">
	<title>rarrow</title>
	<defs>
		<clipPath clipPathUnits="userSpaceOnUse" id="cp1">
			<path d="m-141.71-286.34h6.65v13.86h-6.65z"/>
		</clipPath>
		<clipPath clipPathUnits="userSpaceOnUse" id="cp2">
			<path d="m52.14-285.89h6.65v13.25h-6.65z"/>
		</clipPath>
		<clipPath clipPathUnits="userSpaceOnUse" id="cp3">
			<path d="m55.07-262.92l8.89-5.22-8.09-5.17-8.89 5.22 8.09 5.17z"/>
		</clipPath>
		<clipPath clipPathUnits="userSpaceOnUse" id="cp4">
			<path d="m55.07-285.2l8.89-5.21-8.09-5.17-8.89 5.21 8.09 5.17z"/>
		</clipPath>
		<clipPath clipPathUnits="userSpaceOnUse" id="cp5">
			<path d="m-130.24-291.81h177.74v2.84h-177.74z"/>
		</clipPath>
		<clipPath clipPathUnits="userSpaceOnUse" id="cp6">
			<path d="m-130.24-269.53h177.74v2.84h-177.74z"/>
		</clipPath>
	</defs>
	<style>
		.s0 { fill: #231f20 } 
		.s1 { fill: none;stroke: #231f20;stroke-miterlimit:10 } 
		.s2 { fill: none;stroke: #231f20;stroke-miterlimit:10;stroke-width: .5 } 
	</style>
	<path class="s0" d="m51.3 22.5c0 0-0.9 0.2-2.3 0.6 0 0-3.5 0.6-8.9 3.8-5.2 3-7 7.5-9.4 11.3 0.6-1.2 0.9-2.5 0.8-3.8-0.2-1.2 0.2-3.7-2.2-5.7-2.3-1.9-5.1-2.8-9.2-2.7l-0.1-2.8c4-0.1 7.4-1.5 9.1-4.1 1.7-2.6 1-5.8 0.7-7q-0.3-1.4-0.9-2.6c2.4 3.5 5.7 7.8 10.3 10 5.6 2.6 12.1 3 12.1 3z"/>
	<path class="s0" d="m20 23.2l0.1 2.8q-0.9 0.1-2 0.2c-4.3 0.4-10.2 0.7-13.3 3.9-2.7 2.7-2.9 3.8-3.4 5.8l-0.6-26.2c0.5 2 1.6 5.2 4.2 8 3.9 3.9 9.8 5.7 15 5.5z"/>
	<path class="s1" d="m30.7 38.2c0.6-1.2 0.9-2.5 0.8-3.8-0.2-1.2 0.2-3.7-2.2-5.7-2.3-1.9-5.1-2.8-9.2-2.7q-0.9 0.1-2 0.2c-4.3 0.4-10.2 0.7-13.3 3.9-2.7 2.7-2.9 3.8-3.4 5.8l-0.6-26.2c0.5 2 1.6 5.2 4.2 8 3.9 3.9 9.8 5.7 15 5.5 4-0.1 7.5-1.5 9.1-4.1 1.7-2.6 1-5.8 0.7-7q-0.3-1.4-0.9-2.6c-3-6.4-11-10.5-15-8.3-2.2 1.2-3.2 4.2-3.1 6.5 0.1 2.5 1.4 5.8 4.5 6.8 2.6 0.9 6.5 0.2 7.6-2.6 0.4-1.1 0.3-2.4-0.1-3.5-0.7-1.8-2.2-3.4-3.9-3.6-1.5-0.2-3.5 0.5-4.1 2.2-0.4 1.1-0.1 2.6 1 3.4 1.2 0.9 3.1 0.6 4.2-1"/>
	<path class="s1" d="m21.7 37.1c-1.1-1.6-3.1-1.9-4.3-1-1.1 0.8-1.3 2.3-0.9 3.4 0.5 1.7 2.6 2.4 4 2.2 1.7-0.2 3.3-1.8 4-3.6 0.4-1.2 0.5-2.4 0.1-3.5-1.1-2.8-5-3.6-7.7-2.6-3 1-4.4 4.2-4.5 6.8-0.1 2.3 0.9 5.3 3.1 6.5 3.1 1.7 9.6-0.5 13.3-4.4 0.8-0.8 1.4-1.7 1.9-2.6"/>
	<path class="s1" d="m26 5.4c0.8 0.9 1.7 2.4 2.9 4.1 2.4 3.5 5.7 7.8 10.3 10 5.6 2.6 12.1 3 12.1 3 0 0.1-0.9 0.2-2.3 0.6 0 0-3.5 0.6-8.9 3.8-5.2 3-7 7.5-9.4 11.3q0 0 0 0.1c-0.6 0.9-1.2 1.8-1.9 2.6q-0.1 0.1-0.2 0.2"/>
	<g id="Clip-Path" clip-path="url(#cp1)">
	</g>
	<path fill-rule="evenodd" class="s2" d="m-141.7-286.3h6.6v13.8h-6.6z"/>
	<g id="Clip-Path" clip-path="url(#cp2)">
	</g>
	<path fill-rule="evenodd" class="s2" d="m52.1-285.9h6.7v13.3h-6.7z"/>
	<g id="Clip-Path" clip-path="url(#cp3)">
	</g>
	<path fill-rule="evenodd" class="s2" d="m55.1-262.9l8.9-5.2-8.1-5.2-8.9 5.2 8.1 5.2z"/>
	<g id="Clip-Path" clip-path="url(#cp4)">
	</g>
	<path fill-rule="evenodd" class="s2" d="m55.1-285.2l8.9-5.2-8.1-5.2-8.9 5.2 8.1 5.2z"/>
	<g id="Clip-Path" clip-path="url(#cp5)">
	</g>
	<path fill-rule="evenodd" class="s2" d="m-130.2-291.8h177.7v2.8h-177.7z"/>
	<g id="Clip-Path" clip-path="url(#cp6)">
	</g>
	<path fill-rule="evenodd" class="s2" d="m-130.2-269.5h177.7v2.8h-177.7z"/>
</svg>