<?xml version="1.0" encoding="UTF-8"?><svg id="b" xmlns="http://www.w3.org/2000/svg" width="928.67" height="610.42" viewBox="0 0 928.67 610.42"><path d="M608.49,48.2c2.29.51,5.91,1.17,10.41,1.39,7.12.35,8.96-.79,16.46-.46,3.94.17,8.25.69,12.83,1.86,4.86,1.24,7.29,1.86,9.68,3.72,4.11,3.2,5.41,7.7,6.53,11.62.42,1.48.9,3.5,1.45,12.08.68,10.55.14,10.3.73,14.87.9,7,2.77,12.29,4.11,16.03,1.32,3.67,2.87,7.99,6.05,13.24,3.27,5.41,5.56,9.82,9.2,12.08,6.39,3.98,6.76,4.11,6.76,4.11.76.26,1.65.51,1.73,1.05.14.94-2.29,2.5-4.62,2.74-.7.07-1.51.06-4.36.23-.52.03-3.44.21-5.57,2.09-.17.15-.3.29-.43.44-.29.36-.57.74-.83,1.2-.91,1.57-1.16,3.24-1.16,3.24-.23,1.27-.94,3.5-3.01,7.71" fill="none" stroke="#f4f0ee" stroke-linecap="round" stroke-linejoin="round" stroke-width=".5"/><path d="M627.84,63.85c4.71-.42,8.57-.62,11.42-.72,1.51-.05,3.26-.1,3.73.81.54,1.06-1.1,2.58-2.07,4.32-1.16,2.09-1.89,5.48.03,11.19" fill="none" stroke="#f4f0ee" stroke-linecap="round" stroke-linejoin="round" stroke-width=".5"/><path d="M444.24,28.24c-7.22-14.86-33.21-15.07-60.74-15.3-25.04-.21-45.16-.37-70.64,9.45-34.6,13.34-54.55,35.64-59.84,41.85-6.61,7.74-26.32,31.4-31.91,65.12-1.33,8.01-2.43,20.09-4.62,44.26-1.71,18.77-2.07,26.29-6.61,35.67-1.73,3.57-7.31,14.14-23.78,25.76-33.01,23.3-60.9,20.17-108.83,38.52-29.56,11.32-51.23,19.98-63.37,42.24-2.25,4.14-16.93,31.06-3.34,52.25,2.74,4.28,10.92,8.64,26.68,17.79,10.29,5.97,11.41,19.74,13.08,18.7,0,0-11.79-37.91-3.25-52.07,2.14-3.56,7.38-19.36,52.42-25.55,40.94-5.63,44.41-5.22,64.48-14.45,34.95-16.08,53.99-50.41,54.47-50.03.24.19-2.99,4.39-2.99,4.39-2.66,3.47-11.89,16.45-12.58,53.42-.5,27.22-.8,40.86,5.56,53.36,11.28,22.17,26.49,18.68,37.8,41.13,1.44,2.85,15.23,31.16,3.34,52.25-9.79,17.35-28.87,15.42-42.24,37.8-4.32,7.22-7.78,21.12-7.78,21.12,8.48-19.1,15-16.09,51.14-14.45,7.76.35,7.36.73,12.23,0,20.5-3.07,38.23-24.01,44.47-44.47,5.78-18.95,8.56-41.17-11.12-74.48-13.02-22.04-18.32-20.41-21.37-38.36-3.46-20.37,8.31-29.45,7.06-58.07-.02-.44-.06-1.13-.14-2.5-1.28-22.18-4.09-37.53-3.95-40.47,3.26-66.83,19.31-118.6,25.07-140.62,1.42-5.44,17.57-30.01,28.44-27.93,5.73,1.1,8.79,6.91,11.8,5.62,5.22-2.23-.4-21.17,5.06-23.61,3.73-1.66,8.23,6.33,16.3,5.62,4.84-.42,7.66-4.37,9.56-5.06,22.15-8.08,62.04-2.12,68.01-15.74,1.39-3.18.5-7.36,2.55-12.73,0,0,1.78-4.66.64-7.86,0,0-.02-.06-.05-.14,0,0,0,0,0,0-.03-.09-.96-2.33-1-2.42Z" fill="none" stroke="#f4f0ee" stroke-linecap="round" stroke-linejoin="round" stroke-width="2"/><path d="M446.62,30.07c5.14-12.57,42.41-11.81,47.37-11.75,7.06.08,31.02.71,68.49,12.05,23.95,7.25,35.93,10.88,50.1,20.93,18.32,13,28.23,28.09,34.24,37.41,14.23,22.09,25.27,51.64,28.07,71.65.5,3.56,1.78,14.3,7.53,27.17.91,2.04,3.14,6.97,6.55,12.11,8.56,12.91,21.57,22.59,32.79,26.96,16.86,6.56,30.1,1.31,47.26-1.21,43.75-6.43,98.8,6.99,120.78,39.4,3.4,5.01,13.97,20.6,10.08,36.93-3.69,15.5-19.01,32.08-23.63,36.96-2.96,3.12-8.32,8.34-12.61,17.14-2.28,4.68-3.31,8.43-3.77,8.32-1.09-.27,7.85-20.19,4.79-40.69-3.18-21.3-20-40.82-39.91-48.37-12.57-4.77-24.24-3.97-27.48-3.71-15.49,1.22-21.47,7.12-39.45,9.43-6.27.81-13.55.88-22.44-.44-42.05-6.25-63.2-35.48-64.68-38-2.27-3.85-3.24-7.31-3.24-7.31-.51-1.81-.44-2.29-.61-2.32-1.77-.36-24.17,47.22-19.26,100.16,3.01,32.5,20.81,63.84,33.22,88.38,1.78,3.51,6.89,7.56,7.74,14.61,1.8,15.02-14.46,23.22-11.54,36.31,1.96,8.78,11.09,13.28,10.68,13.76-.54.64-7.74-4.76-10.89-7.16-12.85-9.79-19.32-15.77-19.32-15.77-44.04-40.75-47.23-43.96-51.26-50.64-6.46-10.73-15.81-25.08-16.06-44.47-.09-7.18,1.07-10.9,3.74-24.31,0,0,1.66-8.35,7.99-49.81,4.95-32.38,3.88-59.67,3.09-79.67,0,0-1.9-48.33-15.44-77.2-3.61-7.7-9.34-14.57-9.34-14.57-3.3-3.96-4.99-5.99-7.95-7.66-8.61-4.85-18-.95-18.53-3.09-.47-1.92,5.55-3.72,12.35-11.12,2.73-2.97,7.69-8.35,6.18-11.12-1.32-2.41-7.51-2.75-10.5,0-2.85,2.62-1.41,6.84-3.09,7.41-2.3.78-5.36-7.06-13.02-13.68-2.37-2.05-5.37-3.68-11.28-6.87-10.45-5.64-20.65-10.1-30.84-13.92-7.92-2.97-11.88-4.46-14.28-4.93-8.07-1.6-23.78-2.82-32.96-1.76-1.23.14-5.32.67-8.83-1.56-.56-.35-1.36-.87-2.09-1.79-1.76-2.21-1.79-5.09-1.06-10.4.47-3.4,1.27-9.2,2.32-11.77Z" fill="none" stroke="#f4f0ee" stroke-linecap="round" stroke-linejoin="round" stroke-width="2"/><path d="M281.43,291.39c2.29,6.49,5.61,16.2,9.3,28.14,4.59,14.87,6.89,22.3,8.5,29.17,4.17,17.77,4.93,28.47,13.89,41.68,4.47,6.58,6.05,6.53,29.17,28.48,1.1,1.04,9.36,8.96,25.7,25.01,8.13,7.99,18.71,18.44,31.08,30.85" fill="none" stroke="#f4f0ee" stroke-linecap="round" stroke-linejoin="round" stroke-width=".5"/><path d="M589.98,370.98c-2.44,8.38-6.34,17.85-12.72,27.31-1.19,1.76-2.16,3.12-2.91,4.09-3.78,4.92-8.31,9.32-20.56,22.23-8.98,9.47-15.8,16.65-22.05,24.18-7.53,9.07-13.37,17.35-17.7,23.97" fill="none" stroke="#f4f0ee" stroke-linecap="round" stroke-linejoin="round" stroke-width=".5"/><path d="M345.27,335.65c-.8,1.39-2.29,3.57-4.83,5.28-4.15,2.81-7.55,1.96-8.45,3.57-.9,1.6.69,5.54,13.28,16.38" fill="none" stroke="#f4f0ee" stroke-linecap="round" stroke-linejoin="round" stroke-width=".5"/><path d="M536.47,336.97c1.18,1.78,3.11,4.22,6.08,6.29,5.03,3.49,8.59,2.83,9.85,4.78,1.54,2.38-.57,8.3-15.49,23.46" fill="none" stroke="#f4f0ee" stroke-linecap="round" stroke-linejoin="round" stroke-width=".5"/><path d="M548.86,350.25c.05.6-2.18.41-4.89,2.64-3.46,2.83-5.41,7.7-6.45,10.31-4.08,10.19-9.67,18.05-9.67,18.05-1.68,2.52-4.22,5.62-7.52,9.03l-.98.13c-.14-1.19-.32-2.41-.52-3.66-1.55-9.46-2.98-17.5-9.63-24.07-8.09-7.99-19.26-8.92-21.12-9.09-3.02-.27-7.96-.28-13.31.71-.3.05-2.72.6-7.55,1.7-6.48,1.47-7.16,1.65-8.28,2.05-4.94,1.79-4.94,3.08-7.23,3.03-3.04-.08-3.95-2.36-8.79-5.2,0,0-3.83-2.25-8.06-3.36-5.97-1.56-10.95.14-17.65,2.14-8.42,2.51-14.24,6.4-17.12,8.56-4.41,3.3-8.39,6.27-10.96,11.76-.69,1.47-1.85,4.35-2.41,12.04-.13,1.8-.2,3.53-.23,5.17-10.08-12.7-19.41-21.51-26.06-27.21-6.77-5.81-15.72-12.63-14.72-14.28.56-.94,3.76.66,9.78,1.22,5.23.49,9.11-.13,13.23-.78,11.83-1.88,22-7.16,26.11-9.3,1.65-.85,3.13-1.66,4.47-2.43l.17.3c2.65,1.38,4.93,1.96,6.49,2.23,1.84.32,2.36.14,2.67,0,2.4-1.1,2.03-6.01,2.83-6.03.57-.02.5,2.4,1.96,3.9,1.59,1.64,4.36,1.32,7.09,1.07,3.02-.28,3.1-.88,5.5-1.07,3.2-.25,4.06.74,7.81,1.24,3.09.42,6.61.89,9.58-.71,4.37-2.35,5.35-8.03,6.03-7.8.32.1-1.79,3.51-.53,5.32.37.54,1.02.9,6.03,1.24,4.14.28,4.93.12,7.28.53.32.06,1.63.4,4.25,1.07,3.98,1.02,5.55,1.45,7.81,1.42,2.66-.04,3.33-.66,3.55-.89,1.15-1.22.67-3.27,1.24-3.37.44-.08.67,1.18,1.77,2.13,1.28,1.09,2.95,1.1,4.44,1.06,4.16-.1,7.68-2.21,9.26-3.29l.15-.26c5.85,3.31,13.5,7.29,23.2,9.65,16.28,3.97,30.86,1.57,30.98,3.1Z" fill="#f4f0ee"/><path d="M386.49,392.19c.03-1.64.1-3.37.23-5.17.56-7.69,1.72-10.57,2.41-12.04,2.57-5.49,6.55-8.46,10.96-11.76,2.88-2.16,8.7-6.05,17.12-8.56,6.7-2,11.68-3.7,17.65-2.14,4.23,1.11,8.06,3.36,8.06,3.36,4.84,2.84,5.75,5.12,8.79,5.2,2.29.05,2.29-1.24,7.23-3.03,1.12-.4,1.8-.58,8.28-2.05,4.83-1.1,7.25-1.65,7.55-1.7,5.35-.99,10.29-.98,13.31-.71,1.86.17,13.03,1.1,21.12,9.09,6.65,6.57,8.08,14.61,9.63,24.07.2,1.25.38,2.47.52,3.66,1.4,11.13.51,19.94-.25,27.63-4.89,49.66-3.59,45.99-6.42,64.98-1.64,10.99-3.16,21.11-6.15,34.77-4.41,20.11-8.96,34.01-13.64,45.73-3.35,8.37-8.79,20.7-19.79,31.29-5.31,5.11-10.14,8.1-15.24,7.49-3.56-.43-6.13-2.49-9.63-5.89-10.42-10.12-16.52-20.05-16.85-20.59-8.36-13.81-12.66-20.67-16.31-29.95-5.46-13.86-4.98-19.3-10.7-47.33-5.34-26.18-6.95-27.26-12.03-54.02-3.76-19.81-.71-7.78-5.08-38.25-.12-.81-.92-6.36-.77-14.08Z"/><path d="M386.67,392.42c-.06-.08-.12-.15-.18-.23-10.08-12.7-19.41-21.51-26.06-27.21-6.77-5.81-15.72-12.63-14.72-14.28.56-.94,3.76.66,9.78,1.22,5.23.49,9.11-.13,13.23-.78,11.83-1.88,22-7.16,26.11-9.3,1.65-.85,3.13-1.66,4.47-2.43,14.05-8.07,13.01-11.94,23.86-16.6,15.64-6.72,36.71-6.84,52.23,1.77,6.35,3.52,6.43,5.54,16.82,11.51.79.45,1.61.92,2.47,1.41,5.85,3.31,13.5,7.29,23.2,9.65,16.28,3.97,30.86,1.57,30.98,3.1.05.6-2.18.41-4.89,2.64-3.46,2.83-5.41,7.7-6.45,10.31-4.08,10.19-9.67,18.05-9.67,18.05-1.68,2.52-4.22,5.62-7.52,9.03" fill="none" stroke="#f4f0ee" stroke-linecap="round" stroke-linejoin="round" stroke-width=".5"/><path d="M399.47,339.71c2.65,1.38,4.93,1.96,6.49,2.23,1.84.32,2.36.14,2.67,0,2.4-1.1,2.03-6.01,2.83-6.03.57-.02.5,2.4,1.96,3.9,1.59,1.64,4.36,1.32,7.09,1.07,3.02-.28,3.1-.88,5.5-1.07,3.2-.25,4.06.74,7.81,1.24,3.09.42,6.61.89,9.58-.71,4.37-2.35,5.35-8.03,6.03-7.8.32.1-1.79,3.51-.53,5.32.37.54,1.02.9,6.03,1.24,4.14.28,4.93.12,7.28.53.32.06,1.63.4,4.25,1.07,3.98,1.02,5.55,1.45,7.81,1.42,2.66-.04,3.33-.66,3.55-.89,1.15-1.22.67-3.27,1.24-3.37.44-.08.67,1.18,1.77,2.13,1.28,1.09,2.95,1.1,4.44,1.06,4.16-.1,7.68-2.21,9.26-3.29" fill="none" stroke="#f4f0ee" stroke-linecap="round" stroke-linejoin="round" stroke-width=".5"/><path d="M519.35,390.41c-.14-1.19-.32-2.41-.52-3.66-1.55-9.46-2.98-17.5-9.63-24.07-8.09-7.99-19.26-8.92-21.12-9.09-3.02-.27-7.96-.28-13.31.71-.3.05-2.72.6-7.55,1.7-6.48,1.47-7.16,1.65-8.28,2.05-4.94,1.79-4.94,3.08-7.23,3.03-3.04-.08-3.95-2.36-8.79-5.2,0,0-3.83-2.25-8.06-3.36-5.97-1.56-10.95.14-17.65,2.14-8.42,2.51-14.24,6.4-17.12,8.56-4.41,3.3-8.39,6.27-10.96,11.76-.69,1.47-1.85,4.35-2.41,12.04-.13,1.8-.2,3.53-.23,5.17-.15,7.72.65,13.27.77,14.08,4.37,30.47,1.32,18.44,5.08,38.25,5.08,26.76,6.69,27.84,12.03,54.02,5.72,28.03,5.24,33.47,10.7,47.33,3.65,9.28,7.95,16.14,16.31,29.95.33.54,6.43,10.47,16.85,20.59,3.5,3.4,6.07,5.46,9.63,5.89,5.1.61,9.93-2.38,15.24-7.49,11-10.59,16.44-22.92,19.79-31.29,4.68-11.72,9.23-25.62,13.64-45.73,2.99-13.66,4.51-23.78,6.15-34.77,2.83-18.99,1.53-15.32,6.42-64.98.76-7.69,1.65-16.5.25-27.63Z" fill="none" stroke="#f4f0ee" stroke-linecap="round" stroke-linejoin="round"/><path d="M307.45,167.4c.62-.19,1.51-.46,2.55-.83,3.33-1.18,5.76-2.43,6.69-2.91,6.81-3.56,8.79-6.57,13.86-10.22,2.85-2.04,11.11-7.97,21.68-8.51,2.7-.14,14.39-.94,19.9,5.45,1.3,1.51,1.69,2.76,3.91,4.77.94.85,3.41,2.93,9.6,5.11,8.35,2.95,12.95.83,13.86,3.07.6,1.47-.71,3.73-2.35,4.77-2.23,1.4-5.94-.07-13.28-3.07-5.85-2.39-7.71-3.7-9.2-5.11-2.12-2.01-2.5-3.26-3.75-4.77-5.28-6.39-16.49-5.63-19.07-5.45-10.35.71-17.92,6.38-20.78,8.51-2.79,2.09-6.06,5.07-13.28,10.22-4.06,2.9-7.05,4.83-8.86,3.75-1.38-.82-1.55-3.09-1.49-4.77Z" fill="none" stroke="#f4f0ee" stroke-linecap="round" stroke-linejoin="round" stroke-width=".5"/><path d="M567.66,171.49c-2.41-.68-5.73-1.81-9.46-3.75-.67-.35-2.32-1.16-4.48-2.63-3.72-2.51-5.83-4.87-9.7-7.59-2.91-2.04-11.37-7.97-22.19-8.51-2.76-.14-14.73-.94-20.37,5.45-1.33,1.51-1.73,2.76-4,4.77-.96.85-3.49,2.93-9.82,5.11-8.66,2.99-13.43.96-14.19,3.07-.53,1.47,1.16,3.75,3.06,4.77,2.46,1.31,6.1-.13,13.28-3.07,5.93-2.42,7.78-3.77,9.2-5.11,2.12-2.01,2.5-3.26,3.75-4.77,5.28-6.39,16.49-5.63,19.07-5.45,10.35.71,17.92,6.38,20.78,8.51,2.16,1.62,5.81,4.67,13.28,10.22,3.63,2.69,6.5,4.75,8.86,3.75,1.86-.79,2.62-3.16,2.96-4.77Z" fill="none" stroke="#f4f0ee" stroke-linecap="round" stroke-linejoin="round" stroke-width=".5"/><path d="M422.39,287.94c4.86,3.8,9.48,5.66,12.47,6.61,3.41,1.08,7.67,2.44,13.28,1.67,6.54-.89,10.82-4.11,11.7-4.79,2-1.55,3.4-3.16,4.32-4.38" fill="none" stroke="#f4f0ee" stroke-linecap="round" stroke-linejoin="round" stroke-width=".5"/><path d="M158.9,314.59c-.97,14.04,1.5,24.6,3.63,31.13,3.42,10.47,8,18.12,17.59,31.77,5.38,7.66,9.36,13.24,13.87,19.08,0,0,5.29,6.82,11.55,14.16,16.49,19.35,43.39,45.82,46.83,49.2" fill="none" stroke="#f4f0ee" stroke-linecap="round" stroke-linejoin="round" stroke-width="2"/><path d="M304.31,474.12c3.86,4.32,11.01,11.37,21.46,16.75,2.39,1.23,10.59,5.28,21.99,7.33.15.03.33.06.55.1,13.43,2.3,25.11.71,27.31.39,11.76-1.71,20.94-5.53,26.88-8.56" fill="none" stroke="#f4f0ee" stroke-linecap="round" stroke-linejoin="round" stroke-width="2"/><path d="M757.82,280.79c2.12,6.06,4.75,15.21,5.83,26.56,2.69,28.34-6.23,50.21-11.81,63.46-4.95,11.74-13.83,28.83-29.52,45.75-12.4,13.38-24.97,22.24-34.31,27.85" fill="none" stroke="#f4f0ee" stroke-linecap="round" stroke-linejoin="round" stroke-width="2"/><path d="M660.35,464.81c-4.22,9.2-21.41,43.95-54.12,51.11-21.38,4.69-43.72-3.65-70.84-13.77-10.05-3.75-18.2-7.51-23.86-10.3" fill="none" stroke="#f4f0ee" stroke-linecap="round" stroke-linejoin="round" stroke-width="2"/><path d="M710.04,220.59c2.59-.47,6.25-1.51,9.62-4.18,3.85-3.05,3.64-5.31,8.41-11.24,2.27-2.83,5.45-6.72,10.67-9.88,5.09-3.08,10.52-4.5,10.67-4.15.08.19-1.39.85-3.52,2.24-5.3,3.47-8.48,7.47-9.71,9.05-1.76,2.25-3.84,4.91-5.1,8.56-2.61,7.5-.22,14.66,1.13,17.9" fill="none" stroke="#f4f0ee" stroke-linecap="round" stroke-linejoin="round" stroke-width=".5"/><path d="M588.57,38.74c-5.89-6.51-11.12-11.53-15.05-15.09-4.38-3.97-6.74-5.77-9.92-7.31-4.12-2-8.17-2.87-13.05-3.31-14.97-1.33-16.22,3.4-29.93,2.44-15.16-1.07-20.71-2.09-20.71-2.09-1.36-.25-4.19-.8-7.66,0-4.05.93-6.94,3.24-8.68,4.93" fill="none" stroke="#f4f0ee" stroke-linecap="round" stroke-linejoin="round" stroke-width=".5"/><path d="M780.94,340.4c2.61-9.53,3.64-17.6,4.09-23.31.93-11.87,1.54-21.13-3.47-30.56-2.37-4.47-5.26-7.58-7.25-9.45" fill="none" stroke="#f4f0ee" stroke-linecap="round" stroke-linejoin="round" stroke-width=".5"/><path d="M780.94,340.4c-.13-10.51.28-17.14.75-21.45.14-1.33.46-4.02-.12-7.48-.43-2.57-1.29-5.11-3.37-8.98-.82-1.53-3.13-5.74-9.73-13.71-1.82-2.19-4.33-5.12-7.48-8.48" fill="none" stroke="#f4f0ee" stroke-linecap="round" stroke-linejoin="round" stroke-width=".5"/><path d="M900.92,292.68c.91,1.41,2.15,2.97,3.84,4.44,5.84,5.1,12.89,5.46,15.55,5.45" fill="none" stroke="#f4f0ee" stroke-linecap="round" stroke-linejoin="round" stroke-width=".5"/><path d="M844.92,367.6c1.67-.19,3.62-.61,5.68-1.47,7.16-2.98,10.61-9.14,11.78-11.52" fill="none" stroke="#f4f0ee" stroke-linecap="round" stroke-linejoin="round" stroke-width=".5"/><path d="M679.52,480.8c.32.21,2.44,1.67,2.82,4.48.35,2.62-1.07,4.48-1.33,4.81" fill="none" stroke="#f4f0ee" stroke-linecap="round" stroke-linejoin="round" stroke-width=".5"/><path d="M597.7,517.11c-.48.32-3.77,2.43-10.11,2.78-5.91.33-10.11-1.1-10.85-1.36" fill="none" stroke="#f4f0ee" stroke-linecap="round" stroke-linejoin="round" stroke-width=".5"/><path d="M357.31,501.34c-.56.14-4.37,1.03-10.46-.76-5.68-1.66-9.16-4.42-9.77-4.91" fill="none" stroke="#f4f0ee" stroke-linecap="round" stroke-linejoin="round" stroke-width=".5"/><path d="M246.48,471.52c-.83,1.17-1.69,1.76-2.3,2.07-4.4,2.29-9.12-2.41-14.52-.46-1.39.5-2.39,1.29-3,1.84" fill="none" stroke="#f4f0ee" stroke-linecap="round" stroke-linejoin="round" stroke-width=".5"/><path d="M283.63,501.44c-.22,1.42-.73,2.33-1.14,2.88-2.92,4.01-9.23,1.91-13.2,6.07-1.02,1.07-1.57,2.22-1.86,2.99" fill="none" stroke="#f4f0ee" stroke-linecap="round" stroke-linejoin="round" stroke-width=".5"/><path d="M252.07,65.21c-.92,1.55-2.54,3.74-5.24,5.24-.47.26-1.59.85-5.51,1.84-4.59,1.16-5.22.9-7.6,1.57-2.54.72-6.4,1.81-9.18,5.24-.46.57-3.43,4.36-2.88,9.44.18,1.64,1.21,2.28,2.1,5.51.35,1.27.41,1.83.79,3.67.72,3.51,1.34,5.59,1.57,6.55.98,4.13-.45,8.33-2.62,14.68-1.13,3.32-2.92,7.8-5.77,12.85" fill="none" stroke="#f4f0ee" stroke-linecap="round" stroke-linejoin="round" stroke-width=".5"/><path d="M412.74,13.57c-26.35-1.83-46-5.09-60.25-8.14,0,0-13.75-2.93-44.05.26-2.12.22-7.28.87-8.91,4.2-.78,1.59-.21,2.69-1.05,6.29-.18.78-.82,3.52-2.1,5.77-2.16,3.81-5.2,4.03-8.65,6.82-2.12,1.71-4.74,4.65-6.55,9.96" fill="none" stroke="#f4f0ee" stroke-linecap="round" stroke-linejoin="round" stroke-width=".5"/><path d="M215.31,187.05c-1.04,4.61-3.29,11.04-8.72,13.67-3.28,1.58-6.15,1.03-11.7.79-4.67-.2-11.53-.19-20.11.95" fill="none" stroke="#f4f0ee" stroke-linecap="round" stroke-linejoin="round" stroke-width=".5"/><path d="M438.34,47.89l-21.1-.12c3.34-1.92,6.98-3.32,10.74-4.12-7.38,3.28-15.02,5.97-22.83,8.04,4.69-1.79,9.28-3.82,13.76-6.08-7.56,3.95-14.91,8.3-22,13.02,5.57-1.08,11.13-2.17,16.7-3.25l-3.94-.44c5.62-1.16,11.25-2.32,16.87-3.47-6.38-.26-12.75-.52-19.13-.78,8.2-3.14,16.79-5.11,25.34-7.07-5.67-.79-11.41-1.08-17.13-.87l5.92-.49-25.32,3.67c10.22-2.47,20.44-4.93,30.67-7.4-8.68-.77-17.46-.47-26.07.87,12.37-3.37,24.86-6.31,37.44-8.82l-18.74.06c2.88.07,5.77-.48,8.42-1.6-7.02.74-15.06,1.15-20.08-3.8,1.54-1.06,3.31-1.77,5.16-2.07-3.96,0-7.91,0-11.87.01h2.44c-2.87,1.17-5.73,2.33-8.6,3.49,5.06.12,10.13-.15,15.14-.79.04-.51-.94-.11-.73.35s.84.5,1.35.46c3.12-.22,6.25-.43,9.37-.65-7.1,3.41-14.19,6.81-21.29,10.22,8.73-2.98,17.46-5.95,26.19-8.93-4.37-2.2-8.93-4.03-13.61-5.46,5.46-.83,11-1.17,16.52-1.01-3.93.18-7.88-.12-11.73-.9,3.91-.58,7.88-1.15,11.79-.61s7.83,2.37,9.99,5.68c-2.07.88-4.38,1.2-6.62.91" fill="none" stroke="#f4f0ee" stroke-linecap="round" stroke-linejoin="round" stroke-width=".5"/><path d="M448.12,50.35c14.78-.45,29.65-.89,44.27,1.28-9.23,1.85-18.78,2.08-28.08.68,3.48-1.3,6.96-2.61,10.43-3.91-4.9-1.65-10.05-2.58-15.22-2.74.57-.57,1.44-.8,2.22-.59-3.91,0-7.82-.02-11.73-.03,2.12.52,4.29.83,6.48.94-1.73.46-3.54.61-5.32.44,3.4-1.36,6.8-2.72,10.2-4.08-3.63-1.09-7.26-2.19-10.89-3.28,2.91-.03,5.82-.07,8.73-.1-3.18-.51-6.36-1.02-9.54-1.54,4.85-.28,9.65-1.44,14.09-3.4-5.15-2.11-10.64-3.39-16.19-3.76,7.57-.03,15.14-.07,22.71-.1-.68-.16-1.35-.31-2.03-.47-4.52.43-9.12.01-13.5-1.22,2.18-.08,4.36-.16,6.54-.23-.18-2.19-2.41-3.99-4.58-3.7,5.84.02,11.62-1.14,17.34-2.3,4.94-1,9.88-1.99,14.82-2.99-7.99,3.44-15.99,6.88-23.98,10.32,4.75-.12,9.5-.23,14.25-.35-2.69.14-5.34.87-7.72,2.13,2.51-.06,5.01-.13,7.52-.19-9.29,1.36-18.34,4.4-26.57,8.93,13.44.62,26.93.06,40.28-1.67-4.61-.69-9.29-.92-13.94-.69.78.21,1.56.42,2.34.63-6.66.94-13.31,1.89-19.97,2.83,8.1.9,16.15,2.31,24.08,4.22l-7.93.18c7.42,2.47,15.2,3.83,23.01,4.04" fill="none" stroke="#f4f0ee" stroke-linecap="round" stroke-linejoin="round" stroke-width=".5"/><path d="M599.54,55.63c23.72,26.83,44.24,56.48,60.99,88.13-21.77-14.3-38.31-35.11-54.12-55.81,22.64,25.73,44.38,52.48,61.6,82.11-14.27-7.7-25.85-19.78-34.76-33.33-8.91-13.55-15.31-28.59-20.94-43.8,24.49,36.51,48.99,73.01,73.48,109.52-6.41-2.03-11.48-6.92-15.86-12.02-17.05-19.83-27.46-45.27-29.2-71.36-.69-10.31-.11-20.95-3.72-30.62-.91-2.43-3.32-5.21-5.57-3.91" fill="none" stroke="#f4f0ee" stroke-linecap="round" stroke-linejoin="round" stroke-width=".5"/><path d="M607.9,56.87c12.9,8.42,23.6,20.18,30.76,33.81,4.62,8.8,7.78,18.32,12.57,27.03,4.53,8.22,10.55,15.81,12.94,24.88-15.58-14.27-26.36-33.7-30.22-54.47" fill="none" stroke="#f4f0ee" stroke-linecap="round" stroke-linejoin="round" stroke-width=".5"/><path d="M487.7,21.26c20.23,2.24,39.33,10.19,58.11,18.04,7.19,3.01,14.39,6.02,21.58,9.03,2.84,1.19,5.79,2.45,7.81,4.78,1.34,1.55,2.19,3.49,3.63,4.95,1.33,1.36,3.07,2.22,4.78,3.06,6.79,3.34,13.59,6.68,20.38,10.02-10.5-7.62-15.21-22.23-27.08-27.46-5.5-2.42-11.71-2.4-17.7-2.88-15.74-1.26-31.17-6.31-44.6-14.62,7.68.27,15.13,2.66,22.25,5.56,26.46,10.79,49.32,28.66,71.8,46.3" fill="none" stroke="#f4f0ee" stroke-linecap="round" stroke-linejoin="round" stroke-width=".5"/><path d="M498.61,30.52c35.89,15.75,71,33.26,105.17,52.46-15.9-3.25-30.5-11.15-43.78-20.46-13.29-9.31-25.48-20.08-38.37-29.93,17.99,5.54,35.42,12.88,51.94,21.88-30.81.19-61.65-5.89-90.08-17.78,26.7,12.33,51.68,28.36,74,47.5-20.06-11.05-40.24-22.18-58.14-36.46,23.19,5.5,45.21,15.86,64.24,30.2-.64.05-1.27.09-1.91.14" fill="none" stroke="#f4f0ee" stroke-linecap="round" stroke-linejoin="round" stroke-width=".5"/><path d="M580.35,79.27c40.05,45.33,58.56,108.91,49.1,168.65" fill="none" stroke="#f4f0ee" stroke-linecap="round" stroke-linejoin="round" stroke-width=".5"/><path d="M594.38,95.13c36.75,27.57,61.38,70.76,66.38,116.43" fill="none" stroke="#f4f0ee" stroke-linecap="round" stroke-linejoin="round" stroke-width=".5"/><path d="M583.2,95.18c27.25,58.32,40.96,122.9,39.78,187.26" fill="none" stroke="#f4f0ee" stroke-linecap="round" stroke-linejoin="round" stroke-width=".5"/><path d="M610.76,155.76c-.05,75.86-.09,151.72-.14,227.57" fill="none" stroke="#f4f0ee" stroke-linecap="round" stroke-linejoin="round" stroke-width=".5"/><path d="M624.43,241.64c-.39,54.82-3.06,109.63-8.02,164.23" fill="none" stroke="#f4f0ee" stroke-linecap="round" stroke-linejoin="round" stroke-width=".5"/><path d="M642.23,199.85c-2.36,39.7-4.73,79.41-7.09,119.11-.46,7.81-.94,15.69-3.12,23.2-2.1,7.25-5.74,13.95-9.34,20.58-3.76,6.92-7.52,13.85-11.28,20.77" fill="none" stroke="#f4f0ee" stroke-linecap="round" stroke-linejoin="round" stroke-width=".5"/><path d="M656.96,219.15c-5.17,65.11-10.34,130.22-15.51,195.33" fill="none" stroke="#f4f0ee" stroke-linecap="round" stroke-linejoin="round" stroke-width=".5"/><path d="M607.92,328.27c-5.9,38.16,11.81,78.99,43.71,100.75" fill="none" stroke="#f4f0ee" stroke-linecap="round" stroke-linejoin="round" stroke-width=".5"/><path d="M605.25,304.13c-5.2,25.14-10.27,51.99-.82,75.86,3.95,9.98,10.25,18.82,16.23,27.74,13.8,20.58,26.38,42.58,31.46,66.83" fill="none" stroke="#f4f0ee" stroke-linecap="round" stroke-linejoin="round" stroke-width=".5"/><path d="M630.19,378.25c11.6,28.27,24.44,56.03,38.47,83.17" fill="none" stroke="#f4f0ee" stroke-linecap="round" stroke-linejoin="round" stroke-width=".5"/><path d="M651.73,382.94c7.8,8.41,15.73,17.03,20.37,27.52s5.46,23.38-.79,32.99" fill="none" stroke="#f4f0ee" stroke-linecap="round" stroke-linejoin="round" stroke-width=".5"/><path d="M645.39,390.62c4.46,2.79,7.42,7.39,10.24,11.84,9.5,15.01,19.24,30.72,21.13,48.38" fill="none" stroke="#f4f0ee" stroke-linecap="round" stroke-linejoin="round" stroke-width=".5"/><path d="M626.04,387.51c2.36,10.51,6.86,20.4,11.33,30.2,2.53,5.54,5.06,11.08,7.59,16.62,1.9,4.16,4.75,8.96,9.31,8.96" fill="none" stroke="#f4f0ee" stroke-linecap="round" stroke-linejoin="round" stroke-width=".5"/><path d="M655.65,444.58v-7.67" fill="none" stroke="#f4f0ee" stroke-linecap="round" stroke-linejoin="round" stroke-width=".5"/><path d="M632.71,306.67c3.17,33.9,6.51,67.78,10.03,101.64" fill="none" stroke="#f4f0ee" stroke-linecap="round" stroke-linejoin="round" stroke-width=".5"/><path d="M635.31,250.87c.66,52.5.3,105.01-1.09,157.49" fill="none" stroke="#f4f0ee" stroke-linecap="round" stroke-linejoin="round" stroke-width=".5"/><path d="M625.17,264.11c-1.79,31.68.21,63.58,5.93,94.79" fill="none" stroke="#f4f0ee" stroke-linecap="round" stroke-linejoin="round" stroke-width=".5"/><path d="M615.9,273.86c.64,27.17.88,54.35.73,81.53" fill="none" stroke="#f4f0ee" stroke-linecap="round" stroke-linejoin="round" stroke-width=".5"/><path d="M643.86,226.48c-.6,35.16-2.96,70.29-7.05,105.22" fill="none" stroke="#f4f0ee" stroke-linecap="round" stroke-linejoin="round" stroke-width=".5"/><path d="M666.94,214.97c9.03,15.27,18.82,31.29,34.51,39.56,10.97,5.78,23.64,7.1,35.76,9.72,9.26,2,18.44,4.83,27.91,4.99s19.59-2.82,25.35-10.35" fill="none" stroke="#f4f0ee" stroke-linecap="round" stroke-linejoin="round" stroke-width=".5"/><path d="M669.67,210.59c45.26,22.04,98.29,22.67,144.59,42.42" fill="none" stroke="#f4f0ee" stroke-linecap="round" stroke-linejoin="round" stroke-width=".5"/><path d="M673.09,200.9c1.71,13.27,11.83,25.07,24.69,28.79,6.51,1.88,13.4,1.81,20.17,1.51,21.07-.95,42.34-4.04,63.13-.48" fill="none" stroke="#f4f0ee" stroke-linecap="round" stroke-linejoin="round" stroke-width=".5"/><path d="M681.2,202.24c.07,9.81.57,20.19,6,28.36,5.22,7.85,14.35,12.42,23.62,14.17s18.8,1,28.2.25c19.37-1.55,38.74-3.1,58.11-4.64" fill="none" stroke="#f4f0ee" stroke-linecap="round" stroke-linejoin="round" stroke-width=".5"/><path d="M720.46,236.33c25.75,2.27,51.73-.85,77.51,1.07,25.78,1.92,52.74,9.9,69.45,29.62" fill="none" stroke="#f4f0ee" stroke-linecap="round" stroke-linejoin="round" stroke-width=".5"/><path d="M789.53,232.58c19.87-3.32,40.9.86,57.98,11.53,17.09,10.66,30.08,27.72,35.84,47.02" fill="none" stroke="#f4f0ee" stroke-linecap="round" stroke-linejoin="round" stroke-width=".5"/><path d="M853.25,244.13c24.76,20.83,39.44,53.15,38.81,85.5" fill="none" stroke="#f4f0ee" stroke-linecap="round" stroke-linejoin="round" stroke-width=".5"/><path d="M875.7,257.32c7.31,3.17,12.14,10.62,13.83,18.41s.64,15.92-1.13,23.69c-1.76,7.77-4.23,15.4-5.4,23.29" fill="none" stroke="#f4f0ee" stroke-linecap="round" stroke-linejoin="round" stroke-width=".5"/><path d="M817.9,233.3c12.24-2.65,24.8,2.16,36,7.77,4.81,2.41,9.59,5.02,13.61,8.6,8.96,7.97,13.23,19.81,17.17,31.13" fill="none" stroke="#f4f0ee" stroke-linecap="round" stroke-linejoin="round" stroke-width=".5"/><path d="M820.9,242.01c8.55,1.21,17.19,2.45,25.2,5.69s15.42,8.74,19.21,16.5c2.72,5.57,3.41,11.88,3.8,18.07.58,9.06.62,18.15.67,27.23" fill="none" stroke="#f4f0ee" stroke-linecap="round" stroke-linejoin="round" stroke-width=".5"/><path d="M870.61,266.72c9.14,18.49,13.39,39.38,12.19,59.98-.29,4.98-.99,10.2-3.98,14.19" fill="none" stroke="#f4f0ee" stroke-linecap="round" stroke-linejoin="round" stroke-width=".5"/><path d="M874.96,278.04c.52,21.48,1.01,43.23-3.86,64.16" fill="none" stroke="#f4f0ee" stroke-linecap="round" stroke-linejoin="round" stroke-width=".5"/><path d="M789.46,244.68c24.07-3.47,49.64,6.67,64.8,25.7" fill="none" stroke="#f4f0ee" stroke-linecap="round" stroke-linejoin="round" stroke-width=".5"/><path d="M794.3,246.48c12.57.69,25.36-.38,37.62,2.47,12.26,2.85,24.43,10.78,27.63,22.96" fill="none" stroke="#f4f0ee" stroke-linecap="round" stroke-linejoin="round" stroke-width=".5"/><path d="M760.9,245.54c15.33-1.68,30.96-.51,45.87,3.43,8.15,2.16,16.06,5.13,23.96,8.1,6.28,2.36,12.55,4.72,18.83,7.08" fill="none" stroke="#f4f0ee" stroke-linecap="round" stroke-linejoin="round" stroke-width=".5"/><path d="M799.91,257.1c10.61.94,22.05-1.85,31.49,3.08,6.1,3.19,10.25,9.1,13.83,14.98,1.03,1.7,2.07,3.44,3.56,4.75,1.28,1.12,2.84,1.87,4.37,2.6,6.16,2.94,12.32,5.88,18.47,8.82" fill="none" stroke="#f4f0ee" stroke-linecap="round" stroke-linejoin="round" stroke-width=".5"/><path d="M735.09,253.66c32.53-.31,65.07.38,97.56,2.09" fill="none" stroke="#f4f0ee" stroke-linecap="round" stroke-linejoin="round" stroke-width=".5"/><path d="M759.48,253.71l62.79-.17c7.03-.02,14.94.33,19.69,5.51" fill="none" stroke="#f4f0ee" stroke-linecap="round" stroke-linejoin="round" stroke-width=".5"/><path d="M721.86,268.8c30.92,1.3,61.93.27,92.69-3.09" fill="none" stroke="#f4f0ee" stroke-linecap="round" stroke-linejoin="round" stroke-width=".5"/><path d="M709.67,247.34c0,5.39,4.67,9.49,9.09,12.57,7.17,5,14.75,9.4,22.65,13.13,4.23,2,8.65,3.83,13.32,4.21s9.67-.88,12.88-4.3" fill="none" stroke="#f4f0ee" stroke-linecap="round" stroke-linejoin="round" stroke-width=".5"/><path d="M587.35,406.44c-8.01,29.85-13.66,60.34-16.87,91.08" fill="none" stroke="#f4f0ee" stroke-linecap="round" stroke-linejoin="round" stroke-width=".5"/><path d="M593.83,401.38c-16.84,48.12.91,84.37-18.32,93.24" fill="none" stroke="#f4f0ee" stroke-linecap="round" stroke-linejoin="round" stroke-width=".5"/><path d="M599.9,421.6c3.58,10.2,9.08,19.72,16.13,27.92,5.52,6.42,12.05,12.16,15.93,19.68,1.01,1.95,1.84,4.08,1.73,6.27-.1,2.18-1.12,4.2-2.19,6.11-6.58,11.66-16.25,21.56-27.75,28.41" fill="none" stroke="#f4f0ee" stroke-linecap="round" stroke-linejoin="round" stroke-width=".5"/><path d="M603.76,443.27c1.98,10.8,5.35,21.34,10.01,31.27.38.8.77,1.65.69,2.54-.08.87-.62,1.63-1.14,2.33-4.76,6.49-9.52,12.98-14.27,19.47-1.6,2.18-3.51,4.55-6.2,4.84" fill="none" stroke="#f4f0ee" stroke-linecap="round" stroke-linejoin="round" stroke-width=".5"/><path d="M613.11,458.52c.67,15.6-.24,31.27-2.73,46.69" fill="none" stroke="#f4f0ee" stroke-linecap="round" stroke-linejoin="round" stroke-width=".5"/><path d="M630.41,461.91c-6.19,9.5-11.42,19.63-15.59,30.18" fill="none" stroke="#f4f0ee" stroke-linecap="round" stroke-linejoin="round" stroke-width=".5"/><path d="M617.11,437.8c6.26,8.09,12.63,16.39,15.81,26.11.95,2.92,1.6,6.07.83,9.03-1.2,4.63-5.48,7.69-9.47,10.34-6.22,4.14-12.43,8.28-18.65,12.41" fill="none" stroke="#f4f0ee" stroke-linecap="round" stroke-linejoin="round" stroke-width=".5"/><path d="M587.76,388.25c9.19,21.63,22.8,41.37,39.75,57.65,3.74,3.59,7.67,7.05,10.69,11.26,5.06,7.04,7.3,16.38,4.68,24.65s-10.58,14.91-19.25,14.81" fill="none" stroke="#f4f0ee" stroke-linecap="round" stroke-linejoin="round" stroke-width=".5"/><path d="M583.62,395.27l-22.53,59.58" fill="none" stroke="#f4f0ee" stroke-linecap="round" stroke-linejoin="round" stroke-width=".5"/><path d="M581.85,411.22c-11.03,17.47-17.94,37.52-20.01,58.08-.49,4.9-.75,9.96-2.88,14.41" fill="none" stroke="#f4f0ee" stroke-linecap="round" stroke-linejoin="round" stroke-width=".5"/><path d="M579.13,403.07c-14.25,20.09-26.29,41.74-35.82,64.44" fill="none" stroke="#f4f0ee" stroke-linecap="round" stroke-linejoin="round" stroke-width=".5"/><path d="M558.17,424.44c-15.94,19.81-29.72,41.38-40.99,64.2" fill="none" stroke="#f4f0ee" stroke-linecap="round" stroke-linejoin="round" stroke-width=".5"/><path d="M574.66,471.64c-5.55,7.19-11.72,13.91-18.4,20.06-2.45,2.25-5.29,4.55-8.61,4.52" fill="none" stroke="#f4f0ee" stroke-linecap="round" stroke-linejoin="round" stroke-width=".5"/><path d="M547.04,447.37c.41,9.25-2.62,18.6-8.38,25.85" fill="none" stroke="#f4f0ee" stroke-linecap="round" stroke-linejoin="round" stroke-width=".5"/><path d="M564.82,461.12c-5.45,7.22-11.56,13.95-18.22,20.07" fill="none" stroke="#f4f0ee" stroke-linecap="round" stroke-linejoin="round" stroke-width=".5"/><path d="M718.25,275.21c2.42,45.45-.19,91.18-7.78,136.06" fill="none" stroke="#f4f0ee" stroke-linecap="round" stroke-linejoin="round" stroke-width=".5"/><path d="M728.6,284.47c1.73,37.64,3.37,76.09-7.16,112.27" fill="none" stroke="#f4f0ee" stroke-linecap="round" stroke-linejoin="round" stroke-width=".5"/><path d="M745.87,280.43c.85,21.68,1.69,43.54-1.9,64.94s-11.97,42.57-27.25,57.97" fill="none" stroke="#f4f0ee" stroke-linecap="round" stroke-linejoin="round" stroke-width=".5"/><path d="M708.34,257.43c.49,37.27.99,74.62-2.59,111.72-1.03,10.66-3.38,22.85-12.72,28.1" fill="none" stroke="#f4f0ee" stroke-linecap="round" stroke-linejoin="round" stroke-width=".5"/><path d="M703.65,281.38c.52,30.98,1.05,62.01-1.3,92.9-.97,12.84-2.9,26.65-11.85,35.9" fill="none" stroke="#f4f0ee" stroke-linecap="round" stroke-linejoin="round" stroke-width=".5"/><path d="M687.49,272.88c.08,35.56-.56,71.12-1.91,106.65" fill="none" stroke="#f4f0ee" stroke-linecap="round" stroke-linejoin="round" stroke-width=".5"/><path d="M679.13,258.2v127.5" fill="none" stroke="#f4f0ee" stroke-linecap="round" stroke-linejoin="round" stroke-width=".5"/><path d="M666.65,239.65c.32,30.68,1.69,61.35,4.09,91.94" fill="none" stroke="#f4f0ee" stroke-linecap="round" stroke-linejoin="round" stroke-width=".5"/><path d="M667.54,231.93c0,34.77,0,69.55,0,104.32" fill="none" stroke="#f4f0ee" stroke-linecap="round" stroke-linejoin="round" stroke-width=".5"/><path d="M659.6,269.02c-.23,46.72,2.56,93.45,8.35,139.81" fill="none" stroke="#f4f0ee" stroke-linecap="round" stroke-linejoin="round" stroke-width=".5"/><path d="M657.29,276.77c-1.26,18.36-2.53,36.71-3.79,55.07-.39,5.61-.77,11.32.42,16.82s4.17,10.87,9.06,13.64" fill="none" stroke="#f4f0ee" stroke-linecap="round" stroke-linejoin="round" stroke-width=".5"/><path d="M690.2,260.82c8.88,37.65,17.8,75.52,20.11,114.13.58,9.7.7,19.69-2.62,28.82" fill="none" stroke="#f4f0ee" stroke-linecap="round" stroke-linejoin="round" stroke-width=".5"/><path d="M677.65,375.66c-.31,12.37-.23,24.74.24,37.11" fill="none" stroke="#f4f0ee" stroke-linecap="round" stroke-linejoin="round" stroke-width=".5"/><path d="M712.56,389.56c.26,14.89-3.91,29.84-11.83,42.45-3.06,4.87-6.96,9.61-12.36,11.58" fill="none" stroke="#f4f0ee" stroke-linecap="round" stroke-linejoin="round" stroke-width=".5"/><path d="M698.73,415.11c-1.18,7.7-5.23,14.93-11.18,19.95" fill="none" stroke="#f4f0ee" stroke-linecap="round" stroke-linejoin="round" stroke-width=".5"/><path d="M521.05,487.82c18.07,3.67,36.19,7.12,54.35,10.33,2.56.45,5.33.88,7.66-.27,1.92-.94,3.22-2.78,4.27-4.64,4.61-8.1,6.09-17.57,7.13-26.83,2-17.8,2.69-35.74,2.04-53.64" fill="none" stroke="#f4f0ee" stroke-linecap="round" stroke-linejoin="round" stroke-width=".5"/><path d="M530.8,458.21c-.88,4.27-.88,10.15,3.31,11.36,1.92.56,3.94-.24,5.75-1.07,17.44-7.99,32.56-20.98,43.07-37.03" fill="none" stroke="#f4f0ee" stroke-linecap="round" stroke-linejoin="round" stroke-width=".5"/><path d="M527.1,483.68c-1.09,4.14,1.24,8.57,4.63,11.2,3.38,2.62,7.63,3.8,11.78,4.86,12.5,3.2,26.88,5.54,37.36-1.98,5.86-4.21,9.41-10.83,12.76-17.22,3.41-6.49,6.82-13,9.6-19.79,3.67-8.98,5.58-20.8-1.78-27.13" fill="none" stroke="#f4f0ee" stroke-linecap="round" stroke-linejoin="round" stroke-width=".5"/><path d="M283.34,313.95c-.04,6.81-.08,13.61-.13,20.42-.08,13.47-.14,27.13,3.38,40.13" fill="none" stroke="#f4f0ee" stroke-linecap="round" stroke-linejoin="round" stroke-width=".5"/><path d="M278.7,331.7v23.03" fill="none" stroke="#f4f0ee" stroke-linecap="round" stroke-linejoin="round" stroke-width=".5"/><path d="M284.74,311.3c-.11,13.24-.21,26.48-.32,39.71-.04,5.59.15,11.81,4.04,15.82" fill="none" stroke="#f4f0ee" stroke-linecap="round" stroke-linejoin="round" stroke-width=".5"/><path d="M287.44,323.83c-1.13,7.6-1.87,15.26-2.52,22.92-.66,7.74-1.02,16.25,3.65,22.46" fill="none" stroke="#f4f0ee" stroke-linecap="round" stroke-linejoin="round" stroke-width=".5"/><path d="M290.35,327.82c-2.19,17.69.93,36.01,8.86,51.98,8.61,17.33,22.95,32.68,24.87,51.94" fill="none" stroke="#f4f0ee" stroke-linecap="round" stroke-linejoin="round" stroke-width=".5"/><path d="M286.76,369.28c3.11,14.55,16.61,24.01,26.62,35.02,11.7,12.85,19.35,29.34,21.62,46.57" fill="none" stroke="#f4f0ee" stroke-linecap="round" stroke-linejoin="round" stroke-width=".5"/><path d="M317.65,408.26c3.53,3.93,7.06,7.85,10.58,11.8,14.43,16.2,28.54,32.68,42.33,49.43" fill="none" stroke="#f4f0ee" stroke-linecap="round" stroke-linejoin="round" stroke-width=".5"/><path d="M323.56,413.7c3.08,1.22,5.06,4.17,6.91,6.92,9.43,13.97,20.58,26.78,33.11,38.04,6.92,6.22,14.57,12.39,17.81,21.12" fill="none" stroke="#f4f0ee" stroke-linecap="round" stroke-linejoin="round" stroke-width=".5"/><path d="M342.16,427.99c3.91,2.76,7.31,6.15,10.67,9.55,15.02,15.2,29.59,30.84,43.69,46.91" fill="none" stroke="#f4f0ee" stroke-linecap="round" stroke-linejoin="round" stroke-width=".5"/><path d="M319.04,442.46c6.14,14.8,16.82,27.67,30.22,36.45" fill="none" stroke="#f4f0ee" stroke-linecap="round" stroke-linejoin="round" stroke-width=".5"/><path d="M314.93,417.9c1.75,12.05,6.83,23.6,14.54,33.03,10.34,12.66,25.25,21.59,33.13,35.91" fill="none" stroke="#f4f0ee" stroke-linecap="round" stroke-linejoin="round" stroke-width=".5"/><path d="M333.93,431.08c-.71,16.76,7.81,33.63,21.72,43,7.65,5.15,16.59,8.07,24.43,12.91" fill="none" stroke="#f4f0ee" stroke-linecap="round" stroke-linejoin="round" stroke-width=".5"/><path d="M340.18,437.52c20.63,15.09,38.49,33.95,52.44,55.38" fill="none" stroke="#f4f0ee" stroke-linecap="round" stroke-linejoin="round" stroke-width=".5"/><path d="M342.07,442.33c-1.58,5.77,3,11.26,7.33,15.39,4.27,4.07,8.65,8.03,13.14,11.86,6.71,5.73,14.07,11.38,22.78,12.83" fill="none" stroke="#f4f0ee" stroke-linecap="round" stroke-linejoin="round" stroke-width=".5"/><path d="M316.2,456.74c-.37,7.55,2.25,15.21,7.16,20.96,6.97,8.15,17.88,12,28.56,13.01,10.68,1,21.41-.49,32.11-1.22" fill="none" stroke="#f4f0ee" stroke-linecap="round" stroke-linejoin="round" stroke-width=".5"/><path d="M311.52,469.19c-1.07,3.39-.05,7.19,1.96,10.12s4.92,5.13,7.91,7.06c13.58,8.77,30.04,13.01,46.16,11.89" fill="none" stroke="#f4f0ee" stroke-linecap="round" stroke-linejoin="round" stroke-width=".5"/><path d="M302.6,404.83c3.74,16.76,8.3,33.33,13.68,49.63.96,2.9,1.95,5.82,3.6,8.38,2.11,3.28,5.17,5.82,8.21,8.26,4.29,3.43,8.66,6.77,13.09,10.02" fill="none" stroke="#f4f0ee" stroke-linecap="round" stroke-linejoin="round" stroke-width=".5"/><path d="M210.37,509.49c5.46-5.21,13.13-8.03,20.66-7.61,5.34.3,10.67,2.13,15.94,1.22,4.54-.79,8.48-3.54,12.07-6.44,17.05-13.78,29.85-32.73,36.26-53.68" fill="none" stroke="#f4f0ee" stroke-linecap="round" stroke-linejoin="round" stroke-width=".5"/><path d="M217.06,501.56c.17-3.5,3.64-6.03,7.08-6.73,3.44-.7,7-.12,10.5-.32,13.47-.76,23.71-12.76,28.92-25.2s7.16-26.16,13.31-38.17" fill="none" stroke="#f4f0ee" stroke-linecap="round" stroke-linejoin="round" stroke-width=".5"/><path d="M250.41,508.76c8.94,1.27,16.8-5.51,23.27-11.81,12.27-11.94,24.94-24.51,30.49-40.71" fill="none" stroke="#f4f0ee" stroke-linecap="round" stroke-linejoin="round" stroke-width=".5"/><path d="M282.72,384.35c-1.31,15.04,1.42,30.42,7.81,44.1" fill="none" stroke="#f4f0ee" stroke-linecap="round" stroke-linejoin="round" stroke-width=".5"/><path d="M286.09,390.39c6.16,25.09,10.84,50.54,13.99,76.18" fill="none" stroke="#f4f0ee" stroke-linecap="round" stroke-linejoin="round" stroke-width=".5"/><path d="M263.57,397.51v80.29" fill="none" stroke="#f4f0ee" stroke-linecap="round" stroke-linejoin="round" stroke-width=".5"/><path d="M284.65,381.05c-.34,20.74,6.05,42.05-.12,61.86" fill="none" stroke="#f4f0ee" stroke-linecap="round" stroke-linejoin="round" stroke-width=".5"/><path d="M268.41,393.56c4.58,17.45,9.18,35.67,5.44,53.32-4.54,21.46-20.63,38.44-37.04,52.99" fill="none" stroke="#f4f0ee" stroke-linecap="round" stroke-linejoin="round" stroke-width=".5"/><path d="M281.03,410.74c.66,6.47,1.3,13.21-.94,19.31-1.74,4.75-5.08,8.7-8.09,12.76-6.96,9.38-12.47,19.84-16.28,30.88-1.67,4.83-3.14,9.99-6.77,13.58-6.72,6.66-17.66,5.33-26.82,7.72" fill="none" stroke="#f4f0ee" stroke-linecap="round" stroke-linejoin="round" stroke-width=".5"/><path d="M287.91,428.44c.89,5.39-.78,10.94-3.5,15.68s-6.46,8.79-10.07,12.88c-10.34,11.69-19.99,23.98-28.9,36.79" fill="none" stroke="#f4f0ee" stroke-linecap="round" stroke-linejoin="round" stroke-width=".5"/><path d="M291.88,441.6c.46,4.54-2.66,8.6-5.78,11.93-9.04,9.65-19.72,17.92-26.98,28.98" fill="none" stroke="#f4f0ee" stroke-linecap="round" stroke-linejoin="round" stroke-width=".5"/><path d="M307.3,456.59c-6.75,4.63-13.5,9.26-20.26,13.89-7.94,5.45-16.07,10.98-25.35,13.58-8.92,2.5-18.62,2.19-27.08,5.98-8.19,3.67-14.26,10.76-20.04,17.62" fill="none" stroke="#f4f0ee" stroke-linecap="round" stroke-linejoin="round" stroke-width=".5"/><path d="M248.73,471.96c-3.04,10.83-12.4,19.64-23.4,22.01" fill="none" stroke="#f4f0ee" stroke-linecap="round" stroke-linejoin="round" stroke-width=".5"/><path d="M220.8,267.19c.31,24.5-9.15,49.04-4.37,73.07,2.12,10.65,6.94,20.54,11.71,30.29,4.5,9.19,10.29,19.43,20.31,21.53" fill="none" stroke="#f4f0ee" stroke-linecap="round" stroke-linejoin="round" stroke-width=".5"/><path d="M241.85,277.06c-2.15,8.84.47,18.09,3.29,26.74,7.75,23.82,17.1,47.09,24.98,70.86,5.34,16.13,10.05,33.02,8.14,49.91" fill="none" stroke="#f4f0ee" stroke-linecap="round" stroke-linejoin="round" stroke-width=".5"/><path d="M228.85,292.7c10.62,11.75,12.52,28.72,14.32,44.46,2.82,24.63,6.62,49.14,11.4,73.46" fill="none" stroke="#f4f0ee" stroke-linecap="round" stroke-linejoin="round" stroke-width=".5"/><path d="M262.8,255.36c2.57,14.3-3.59,28.53-6.23,42.82-2.07,11.22-1.96,22.72-1.55,34.12.37,10.12.97,20.22,1.8,30.31" fill="none" stroke="#f4f0ee" stroke-linecap="round" stroke-linejoin="round" stroke-width=".5"/><path d="M264.46,255.34c1.11,35.09-6.08,70.42-20.82,102.29" fill="none" stroke="#f4f0ee" stroke-linecap="round" stroke-linejoin="round" stroke-width=".5"/><path d="M269.58,259.96c2.04,37.98-9.22,75.65-8.16,113.67.19,6.94.89,14.17,4.52,20.1,2.94,4.8,7.53,8.3,11.59,12.19,6.82,6.54,12.32,14.45,16.08,23.12,4.65,10.72,6.42,23.7.42,33.73" fill="none" stroke="#f4f0ee" stroke-linecap="round" stroke-linejoin="round" stroke-width=".5"/><path d="M225.97,270.5c2.77,24.7-3.73,50.15,2.06,74.32,4.44,18.55,15.7,34.59,25.43,50.99,9.74,16.41,18.36,34.76,16.61,53.76" fill="none" stroke="#f4f0ee" stroke-linecap="round" stroke-linejoin="round" stroke-width=".5"/><path d="M218.49,272.03c-7.28,12.1-6.71,27.19-5.91,41.29.54,9.57,1.09,19.15,1.63,28.72.46,8.08.94,16.27,3.56,23.93,6.62,19.31,25.52,31.63,44.38,39.42,5.78,2.39,11.82,4.58,16.49,8.72,9.06,8.03,10.94,21.68,8.79,33.59" fill="none" stroke="#f4f0ee" stroke-linecap="round" stroke-linejoin="round" stroke-width=".5"/><path d="M217.02,253.87c-7.53,20.78-28.53,33.08-48.28,43.02-11.79,5.94-23.85,11.71-36.77,14.41-11.16,2.33-22.67,2.3-33.97,3.84-11.3,1.53-22.86,4.9-31.13,12.74" fill="none" stroke="#f4f0ee" stroke-linecap="round" stroke-linejoin="round" stroke-width=".5"/><path d="M219.37,250.3c-23.74,14.9-47.04,30.52-71.35,44.47-24.06,13.8-51.32,26.3-78.6,21.32" fill="none" stroke="#f4f0ee" stroke-linecap="round" stroke-linejoin="round" stroke-width=".5"/><path d="M208.78,251.06c-22.15,3.63-43.51,10.93-64.75,18.2-21.68,7.42-43.37,14.84-65.05,22.26-5.63,1.92-11.34,3.9-16.17,7.36-7.8,5.6-12.46,14.46-16.86,22.99" fill="none" stroke="#f4f0ee" stroke-linecap="round" stroke-linejoin="round" stroke-width=".5"/><path d="M200.94,257.6c-39.84,12.04-79.53,24.66-118.46,39.36-14.92,5.63-30.01,11.73-42.2,22.01" fill="none" stroke="#f4f0ee" stroke-linecap="round" stroke-linejoin="round" stroke-width=".5"/><path d="M197.04,265.69c-23.38,8.02-48.22,11.83-70.69,22.11-10.91,5-21.15,11.47-32.38,15.7-19.37,7.29-41.26,7.71-59.24,17.97" fill="none" stroke="#f4f0ee" stroke-linecap="round" stroke-linejoin="round" stroke-width=".5"/><path d="M112.16,278.81c-12.1,1.37-24.29,2.86-35.79,6.86-15.72,5.47-29.75,15.67-39.82,28.93-3.43,4.52-6.46,9.51-7.61,15.07" fill="none" stroke="#f4f0ee" stroke-linecap="round" stroke-linejoin="round" stroke-width=".5"/><path d="M79.27,278.26c-12.65-2.74-25.73,3.79-34.96,12.86-9.23,9.08-15.65,20.55-23.38,30.94" fill="none" stroke="#f4f0ee" stroke-linecap="round" stroke-linejoin="round" stroke-width=".5"/><path d="M68.71,287.53c-20.62,13.46-33.5,38-32.87,62.61" fill="none" stroke="#f4f0ee" stroke-linecap="round" stroke-linejoin="round" stroke-width=".5"/><path d="M76.47,316.42c-6.48-2.16-13.79.19-19.16,4.41s-9.16,10.09-12.77,15.89c-5.92,9.52-11.67,19.28-15.13,29.94" fill="none" stroke="#f4f0ee" stroke-linecap="round" stroke-linejoin="round" stroke-width=".5"/><path d="M79.87,322.82c-9.45-.9-19.87-1.55-27.49,4.1-6.17,4.58-9.04,12.26-11.6,19.5-2.6,7.38-5.24,14.96-5.09,22.78" fill="none" stroke="#f4f0ee" stroke-linecap="round" stroke-linejoin="round" stroke-width=".5"/><path d="M56.27,319.81c-3.59-.75-7.4.45-10.35,2.62s-5.14,5.24-6.89,8.46c-4.22,7.74-6.19,16.58-6.62,25.39-.16,3.26-.1,6.62,1.11,9.66,1.66,4.17,5.36,7.44,6.3,11.83" fill="none" stroke="#f4f0ee" stroke-linecap="round" stroke-linejoin="round" stroke-width=".5"/><path d="M46.34,305.33c-4.6,3.19-9.21,6.38-13.81,9.56-2.06,1.43-4.18,2.91-5.55,5.01-1.2,1.83-1.74,4.01-2.24,6.14-1.08,4.63-2.04,9.29-2.89,13.97-1.1,6.07-1.96,12.66.84,18.16,2.23,4.38,6.42,7.34,9.98,10.72,3.57,3.38,6.8,7.91,6.14,12.78" fill="none" stroke="#f4f0ee" stroke-linecap="round" stroke-linejoin="round" stroke-width=".5"/><path d="M37.81,302.13c-1.54,18.2-5.65,36.17-12.18,53.23-1.56,4.08-3.25,8.75-1.27,12.64" fill="none" stroke="#f4f0ee" stroke-linecap="round" stroke-linejoin="round" stroke-width=".5"/><path d="M25.93,305.96c-6.61,7.56-9.46,17.6-12.11,27.28-1.3,4.75-2.61,9.71-1.61,14.53,1.4,6.73,6.93,11.69,12.01,16.32,5.08,4.63,10.33,10.08,10.84,16.94" fill="none" stroke="#f4f0ee" stroke-linecap="round" stroke-linejoin="round" stroke-width=".5"/><path d="M188.23,245.54c-40.12,15.31-78.29,38.32-121.01,42.7-4.16.43-8.51.73-12.08,2.89-2.95,1.79-5.05,4.69-6.96,7.57-5.77,8.69-10.59,17.99-14.37,27.71" fill="none" stroke="#f4f0ee" stroke-linecap="round" stroke-linejoin="round" stroke-width=".5"/><path d="M185.22,244.65c-22.2,3.07-41.93,15.84-63.77,20.85-7.83,1.8-15.9,2.59-23.54,5.06-12.4,4.01-22.96,12.17-33.24,20.19-6.29,4.9-12.58,9.8-18.87,14.71" fill="none" stroke="#f4f0ee" stroke-linecap="round" stroke-linejoin="round" stroke-width=".5"/><path d="M50.94,334.74l-9.88,1.72c-.99.17-2.02.36-2.86.9-.93.6-1.55,1.58-2.13,2.53-6.49,10.7-11.91,22.04-16.14,33.82" fill="none" stroke="#f4f0ee" stroke-linecap="round" stroke-linejoin="round" stroke-width=".5"/><path d="M12.88,326.04c-2.41,6.19-4.14,12.64-5.16,19.2-.29,1.86-.52,3.78-.05,5.6.44,1.71,1.46,3.2,2.52,4.61,6.97,9.26,16.54,16.89,20.73,27.69" fill="none" stroke="#f4f0ee" stroke-linecap="round" stroke-linejoin="round" stroke-width=".5"/><path d="M198.43,269.38c-31.17,0-61.38,9.9-90.96,19.7-12.6,4.17-25.29,8.38-36.96,14.7-5.35,2.89-10.65,6.41-13.72,11.66-3.49,5.98-4.29,14.3-10.46,17.43" fill="none" stroke="#f4f0ee" stroke-linecap="round" stroke-linejoin="round" stroke-width=".5"/><path d="M172.14,274.68c-44.8,9.68-88.51,24.39-130.05,43.77" fill="none" stroke="#f4f0ee" stroke-linecap="round" stroke-linejoin="round" stroke-width=".5"/><path d="M177.2,275.44c-7.54,4.24-15.14,8.51-23.39,11.09-11.89,3.72-24.56,3.77-36.93,5.29-16.78,2.07-33.21,6.94-48.42,14.33" fill="none" stroke="#f4f0ee" stroke-linecap="round" stroke-linejoin="round" stroke-width=".5"/><path d="M182.32,278.63c-6.71,8.29-17.56,12.03-28.06,13.92-19.74,3.56-40.08,2-59.94,4.83s-40.57,11.3-50.43,28.77" fill="none" stroke="#f4f0ee" stroke-linecap="round" stroke-linejoin="round" stroke-width=".5"/><path d="M166.2,300.51c-18,.91-36.05-.43-54.05.25s-36.36,3.52-52.19,12.13c.48,1.01.96,2.02,1.45,3.02" fill="none" stroke="#f4f0ee" stroke-linecap="round" stroke-linejoin="round" stroke-width=".5"/><path d="M272.23,173.04c2,16.45-8.32,31.52-13.81,47.15-11.15,31.78-2.27,67.03-7.33,100.32" fill="none" stroke="#f4f0ee" stroke-linecap="round" stroke-linejoin="round" stroke-width=".5"/><path d="M278.41,146.75c.92,54.58-4.33,109.27-15.6,162.69" fill="none" stroke="#f4f0ee" stroke-linecap="round" stroke-linejoin="round" stroke-width=".5"/><path d="M277.67,113.24c-2.49,45.96-4.97,91.91-7.46,137.87-.84,15.54-2.36,32.63-13.5,43.5" fill="none" stroke="#f4f0ee" stroke-linecap="round" stroke-linejoin="round" stroke-width=".5"/><path d="M280.11,122.41c-.89,36.42-3.41,73.82-18.8,106.84-7.36,15.78-17.56,30.33-22.7,46.97-5.88,19.03-4.61,40.18,3.52,58.36" fill="none" stroke="#f4f0ee" stroke-linecap="round" stroke-linejoin="round" stroke-width=".5"/><path d="M287.91,104c-17.04,17.53-21.75,43.28-25.63,67.42-2.75,17.11-5.49,34.39-4.4,51.68.81,12.9,3.75,25.71,2.93,38.61-.86,13.39-5.73,26.18-11.22,38.42-4.49,10.01-9.95,20.4-19.51,25.79" fill="none" stroke="#f4f0ee" stroke-linecap="round" stroke-linejoin="round" stroke-width=".5"/><path d="M273.24,129.8c-4.89-.9-8.45,4.41-10.52,8.93-4.65,10.13-9.08,20.35-13.31,30.65-4.43,10.8-8.71,22.51-6.12,33.89,3.27,14.37,16.56,24.34,22.05,38.01,3.91,9.73,3.57,20.67,1.72,30.98-3.43,19.11-11.95,37.28-24.44,52.15" fill="none" stroke="#f4f0ee" stroke-linecap="round" stroke-linejoin="round" stroke-width=".5"/><path d="M270.11,94.15c-16.11,13.27-23.7,34-30.6,53.7-7.84,22.41-15.8,45.69-13.59,69.33,1.84,19.73,10.74,39.09,7.55,58.64" fill="none" stroke="#f4f0ee" stroke-linecap="round" stroke-linejoin="round" stroke-width=".5"/><path d="M261.1,124.65c-5.67,17.48-9.25,35.64-10.62,53.96-2.95,39.31,4.07,80.01-8,117.54" fill="none" stroke="#f4f0ee" stroke-linecap="round" stroke-linejoin="round" stroke-width=".5"/><path d="M590.39,111.26c10.69,4.92,20.7,11.29,29.7,18.87,5.88,4.96,11.47,10.65,14.34,17.78,2.55,6.33,2.78,13.35,2.54,20.17-.68,19.18-4.79,38.1-10.02,56.57-2.37,8.37-4.99,16.86-4.69,25.55.32,9.3,3.96,18.12,7.55,26.7" fill="none" stroke="#f4f0ee" stroke-linecap="round" stroke-linejoin="round" stroke-width=".5"/><path d="M605.33,92.39c16.88,7.75,26.09,25.97,32.71,43.33,2.98,7.81,5.75,16.13,4.46,24.4-1.54,9.85-8.49,17.82-13.61,26.38-11.85,19.82-14.15,43.71-16.18,66.71-.24,2.67-.46,5.46.53,7.95.98,2.48,3.02,4.36,5,6.14,6.68,6.03,13.36,12.06,20.04,18.08" fill="none" stroke="#f4f0ee" stroke-linecap="round" stroke-linejoin="round" stroke-width=".5"/><path d="M549.27,64.78c6.8-.46,13.68-.92,20.38.32s13.31,4.37,17.36,9.85c3.29,4.45,4.63,10,5.76,15.41.21,1.02.42,2.1.11,3.1-.65,2.12-3.15,2.91-5.26,3.58-7.01,2.26-13.3,6.7-17.77,12.56,9.28-1.19,18.59,1.69,27.25,5.24,7.55,3.1,15.08,6.89,20.49,13s8.32,15.01,5.45,22.65" fill="none" stroke="#f4f0ee" stroke-linecap="round" stroke-linejoin="round" stroke-width=".5"/><path d="M568.12,78.44c-6.59,2.05-12.4,6.52-16.07,12.37-.95-4.2,2.28-8.14,5.51-11,3.05-2.71,6.45-5.22,10.4-6.22s8.59-.19,11.25,2.9c3.97,4.62,1.95,12-1.97,16.66s-9.36,7.88-13.16,12.64c.83-.45,1.22-1.58.84-2.44" fill="none" stroke="#f4f0ee" stroke-linecap="round" stroke-linejoin="round" stroke-width=".5"/><path d="M578.94,115.48c9.02,2.45,18.03,6.61,23.66,14.08,4.75,6.29,6.61,14.25,7.99,22.01,6.62,37.18,4.89,75.28,3.14,113" fill="none" stroke="#f4f0ee" stroke-linecap="round" stroke-linejoin="round" stroke-width=".5"/><path d="M662.63,190.37c-8.63,31.5-17.31,63.02-28.37,93.75-3.72,10.33-7.73,20.68-9.21,31.56-1.48,10.88-.18,22.57,6.01,31.64,4.76,6.98,12.23,12.22,15.17,20.14,1.97,5.32,1.63,11.19.95,16.82-2.12,17.6-7.27,34.83-15.15,50.7" fill="none" stroke="#f4f0ee" stroke-linecap="round" stroke-linejoin="round" stroke-width=".5"/><path d="M242.31,120.58c-2.61,7.45-5.22,14.91-7.45,22.48-11.89,40.38-12.86,83.82-28.95,122.72-3.41,8.25-9.16,17.37-18.08,17.63" fill="none" stroke="#f4f0ee" stroke-linecap="round" stroke-linejoin="round" stroke-width=".5"/><path d="M260,110.57c-9.73,15.52-14.03,33.96-15.12,52.25-1.08,18.29.89,36.61,2.86,54.83,1.7,15.74,3.41,31.52,6.89,46.97" fill="none" stroke="#f4f0ee" stroke-linecap="round" stroke-linejoin="round" stroke-width=".5"/><path d="M272.21,96.08c-26.93,48.55-30.41,108.37-62.21,153.87" fill="none" stroke="#f4f0ee" stroke-linecap="round" stroke-linejoin="round" stroke-width=".5"/><path d="M257.24,148.58c-1.85,37.69-21.13,72.13-41.45,103.94" fill="none" stroke="#f4f0ee" stroke-linecap="round" stroke-linejoin="round" stroke-width=".5"/><path d="M256.48,190.85c.03,38.52-6.65,77.03-19.65,113.29" fill="none" stroke="#f4f0ee" stroke-linecap="round" stroke-linejoin="round" stroke-width=".5"/><path d="M255.69,176.95c-.36,6.6-2.72,12.9-4.08,19.36-1.93,9.17-1.87,18.67-3.74,27.85-4.14,20.31-17.33,37.41-30.13,53.72" fill="none" stroke="#f4f0ee" stroke-linecap="round" stroke-linejoin="round" stroke-width=".5"/><path d="M239.53,191.56c-.69,3.42-2.16,6.62-3.62,9.79-4.51,9.82-9.03,19.65-13.54,29.47" fill="none" stroke="#f4f0ee" stroke-linecap="round" stroke-linejoin="round" stroke-width=".5"/><path d="M338.63,80.13c-9.9-1.51-20.04,2.07-28.32,7.72-8.27,5.65-14.98,13.26-21.59,20.79-2.71,3.09-5.47,6.25-7.07,10.03-3,7.12-1.49,15.39-3.63,22.82" fill="none" stroke="#f4f0ee" stroke-linecap="round" stroke-linejoin="round" stroke-width=".5"/><path d="M325.36,79.22c-3.13-1.32-6.86-.25-9.53,1.84s-4.48,5.07-6.16,8.02c-9.58,16.82-16.81,34.98-21.4,53.79-.6,2.45-1.4,5.23-3.68,6.29" fill="none" stroke="#f4f0ee" stroke-linecap="round" stroke-linejoin="round" stroke-width=".5"/><path d="M301.91,95.03c-1.48,2.14-2.96,4.27-4.38,6.45-13.72,20.94-22.15,45.33-24.29,70.27" fill="none" stroke="#f4f0ee" stroke-linecap="round" stroke-linejoin="round" stroke-width=".5"/><path d="M340.53,67.79c.43,4.33-.08,8.75-1.47,12.87-.21.61-.45,1.25-.95,1.67-.59.5-1.41.59-2.18.61-5.27.11-10.51-2.66-13.38-7.08" fill="none" stroke="#f4f0ee" stroke-linecap="round" stroke-linejoin="round" stroke-width=".5"/><path d="M338.82,65.66c-1.07-1.85.1-4.44,2.05-5.32s4.32-.33,6.08.89,3.04,3,4.23,4.78c.75,1.12,1.52,2.3,2.68,2.98,1.15.69,2.55.81,3.9.82,7.65.08,15.29-2.84,20.92-8.01" fill="none" stroke="#f4f0ee" stroke-linecap="round" stroke-linejoin="round" stroke-width=".5"/><path d="M360.95,51.26c-15.1,2.33-31.44-3.6-45.38,2.66-6.88,3.09-12.19,8.79-17.07,14.54-13.66,16.1-25.47,33.77-35.14,52.54" fill="none" stroke="#f4f0ee" stroke-linecap="round" stroke-linejoin="round" stroke-width=".5"/><path d="M338.76,42.47c-24.75-2.76-48.96,11.36-64.84,30.54-15.88,19.18-24.95,42.95-33.75,66.25" fill="none" stroke="#f4f0ee" stroke-linecap="round" stroke-linejoin="round" stroke-width=".5"/><path d="M287.27,48.14c-6.27-1.44-11.91,3.83-16.05,8.76-12.65,15.05-23.86,31.3-33.45,48.46-3.93,7.03-7.6,14.26-9.94,21.96-4.92,16.15-3.76,33.44-2.56,50.28" fill="none" stroke="#f4f0ee" stroke-linecap="round" stroke-linejoin="round" stroke-width=".5"/><path d="M329.32,30.53c-9.6-2.67-19.43,3.09-27.17,9.37-15.05,12.22-27.62,27.48-36.73,44.58" fill="none" stroke="#f4f0ee" stroke-linecap="round" stroke-linejoin="round" stroke-width=".5"/><path d="M335.16,27.65c-13.86-2.79-28.48.15-41.12,6.49s-23.42,15.89-32.78,26.48c-4.7,5.32-9.13,11.01-11.94,17.54" fill="none" stroke="#f4f0ee" stroke-linecap="round" stroke-linejoin="round" stroke-width=".5"/><path d="M406.38,32.29c-31.81-1.48-63.86,2.5-94.34,11.71" fill="none" stroke="#f4f0ee" stroke-linecap="round" stroke-linejoin="round" stroke-width=".5"/><path d="M397.17,28.6c-13.7,1.23-27.49-.16-41.23.15-13.75.31-27.96,2.51-39.43,10.09" fill="none" stroke="#f4f0ee" stroke-linecap="round" stroke-linejoin="round" stroke-width=".5"/><path d="M397.81,21.3c-15.8-.61-31.72-1.22-47.34,1.25-15.89,2.51-31.34,8.18-47.43,8.57" fill="none" stroke="#f4f0ee" stroke-linecap="round" stroke-linejoin="round" stroke-width=".5"/><path d="M406.82,23.59c-17.88-2.36-36.4-4.68-53.68.47-15.25,4.55-28.35,14.59-43.46,19.59" fill="none" stroke="#f4f0ee" stroke-linecap="round" stroke-linejoin="round" stroke-width=".5"/><path d="M389.76,40.38c-12.53,2.77-25.54,1.06-38.36.6s-26.45.59-36.96,7.96c-4.63,3.25-9.07,7.83-14.73,7.71" fill="none" stroke="#f4f0ee" stroke-linecap="round" stroke-linejoin="round" stroke-width=".5"/><path d="M387.93,45.58c-18.33-2.33-36.87,2.45-54.1,9.14-8.8,3.42-17.6,7.47-24.31,14.11-13.73,13.59-16.13,35.19-28.24,50.24" fill="none" stroke="#f4f0ee" stroke-linecap="round" stroke-linejoin="round" stroke-width=".5"/><path d="M336.66,64.31c-2.92-.25-5.89.09-8.68.98-3.72,1.19-7.06,3.33-10.35,5.45-12.25,7.89-24.5,15.78-36.75,23.67" fill="none" stroke="#f4f0ee" stroke-linecap="round" stroke-linejoin="round" stroke-width=".5"/><path d="M384,51.36c-11.63-.36-23.27-.17-34.88.55" fill="none" stroke="#f4f0ee" stroke-linecap="round" stroke-linejoin="round" stroke-width=".5"/><path d="M449.16,53.3h31.59" fill="none" stroke="#f4f0ee" stroke-linecap="round" stroke-linejoin="round" stroke-width=".5"/><path d="M132.22,296.61c-6.34,6.32-15.16,9.36-23.66,12.2-11.76,3.94-23.57,7.88-35.77,10.16-3.97.74-8.06,1.33-11.63,3.21s-6.61,5.39-6.65,9.42" fill="none" stroke="#f4f0ee" stroke-linecap="round" stroke-linejoin="round" stroke-width=".5"/><path d="M162.18,324.45c-1.05,10.23-.28,20.88,4,30.24,3.79,8.27,10.08,15.09,15.46,22.42,6.69,9.13,12.03,19.19,18.88,28.2s15.58,17.15,26.42,20.4" fill="none" stroke="#f4f0ee" stroke-linecap="round" stroke-linejoin="round" stroke-width=".5"/><path d="M198.34,384.25c-.84,7.79,4.94,14.53,10.12,20.41,10.51,11.92,20.09,24.66,28.63,38.06" fill="none" stroke="#f4f0ee" stroke-linecap="round" stroke-linejoin="round" stroke-width=".5"/><path d="M212.13,396.03c-1.21,4.31,1.76,8.57,4.56,12.06,6.55,8.18,13.1,16.36,19.65,24.55" fill="none" stroke="#f4f0ee" stroke-linecap="round" stroke-linejoin="round" stroke-width=".5"/><path d="M218.94,396.97c11.04,14.91,19.15,31.98,23.74,49.95" fill="none" stroke="#f4f0ee" stroke-linecap="round" stroke-linejoin="round" stroke-width=".5"/><path d="M230.01,405.28c9.06,13.32,15.89,28.16,20.12,43.7" fill="none" stroke="#f4f0ee" stroke-linecap="round" stroke-linejoin="round" stroke-width=".5"/><path d="M202.38,288.22c-5.22,8.56-8.89,18.06-10.76,27.91-.77,4.03-1.24,8.14-1,12.23.26,4.48,1.35,8.86,2.43,13.21,3.55,14.22,7.09,28.43,10.64,42.65" fill="none" stroke="#f4f0ee" stroke-linecap="round" stroke-linejoin="round" stroke-width=".5"/><path d="M188.16,309.69c-3.72,20.81,2.3,42.42,12.57,60.9,10.27,18.48,24.58,34.33,38.76,50.01" fill="none" stroke="#f4f0ee" stroke-linecap="round" stroke-linejoin="round" stroke-width=".5"/><path d="M182.52,317.6c.01,13.18.03,26.44,2.3,39.42s6.93,25.81,15.32,35.97c6.38,7.74,14.65,13.66,22.82,19.48" fill="none" stroke="#f4f0ee" stroke-linecap="round" stroke-linejoin="round" stroke-width=".5"/><path d="M182.52,366.09c-11.21-17.43-7.66-42.85,7.91-56.53,3.01-2.65,6.53-5.06,8.07-8.77,1.63-3.94,1.11-9.31,4.77-11.49" fill="none" stroke="#f4f0ee" stroke-linecap="round" stroke-linejoin="round" stroke-width=".5"/><path d="M205.62,286.94c-3.55,4.88-7.14,9.82-11.75,13.72s-10.4,6.72-16.44,6.61c-1.98-.04-4.03-.38-5.9.28-2.28.81-3.81,2.94-5.04,5.03-3.91,6.63-6.42,14.25-6.14,21.95s3.58,15.44,9.62,20.21" fill="none" stroke="#f4f0ee" stroke-linecap="round" stroke-linejoin="round" stroke-width=".5"/><path d="M184.69,309.88c-4.97,3.8-9.94,7.6-14.92,11.4-1.13.87-2.3,1.77-2.97,3.04-.68,1.29-.75,2.8-.74,4.26.08,11.26,4.38,22.44,11.88,30.85" fill="none" stroke="#f4f0ee" stroke-linecap="round" stroke-linejoin="round" stroke-width=".5"/><path d="M755.17,296.42c3.86,16.07.43,33.21-6.54,48.19s-17.28,28.12-27.79,40.88c-13.25,16.09-27.03,31.88-42.88,45.42" fill="none" stroke="#f4f0ee" stroke-linecap="round" stroke-linejoin="round" stroke-width=".5"/><path d="M725.23,300.22c-6.45-1.62-13.34,2.25-17,7.8-3.67,5.55-4.71,12.41-5.05,19.05-.97,18.92,2.78,39.07-5.76,55.98" fill="none" stroke="#f4f0ee" stroke-linecap="round" stroke-linejoin="round" stroke-width=".5"/><path d="M372.9,188.63c-2.79-.84-16.35-4.61-29.74,2.17-15.51,7.85-21.38,25.08-19.15,26.67,2.53,1.8,13.11-18.14,33.76-21.01,19.75-2.74,35.5,11.98,37.22,9.59,1.4-1.95-8.04-13.18-22.09-17.42Z" fill="none" stroke="#f4f0ee" stroke-linecap="round" stroke-linejoin="round" stroke-width=".5"/><path d="M507.43,189.79c4.21-1.11,16.76-4.42,28.72,2.31,14.15,7.97,19.18,25.34,16.98,26.93-2.51,1.81-11.99-18.67-31.66-22.3-20.44-3.77-37.94,13.25-39.32,11.09-1.12-1.74,9.52-13.87,25.28-18.03Z" fill="none" stroke="#f4f0ee" stroke-linecap="round" stroke-linejoin="round" stroke-width=".5"/></svg>