<?xml version="1.0" encoding="UTF-8"?><svg id="b" xmlns="http://www.w3.org/2000/svg" width="78.13" height="67.58" viewBox="0 0 78.13 67.58"><path d="M37.56,22.4c3.5-.76,6.98.46,8.86,3.07,1.67,2.33,1.96,5.62.68,7.83-2.85,4.91-14.39,5.99-18.73,0-3.29-4.54-1.29-11.55,2.38-15.33,5.39-5.54,15.34-5.11,21.12,0,7.12,6.3,6.13,18.16.34,24.18-5.94,6.17-15.34,4.55-18.05,4.09-2.71-.47-8.55-1.47-12.6-6.47-5-6.16-5.31-15.96-.34-22.82,4.85-6.68,12.72-7.58,14.99-7.83,9.28-1.04,19.86,3.4,24.86,12.6.69,1.28,5.75,10.94,1.02,20.43-3.54,7.11-10.36,9.67-13.62,10.9-3.26,1.23-13.22,4.29-23.16-1.02-8.66-4.63-11.78-12.67-12.94-15.67-1.27-3.27-3.49-8.98-1.7-16.01,2.06-8.09,8.15-12.51,10.22-13.96,13.01-9.15,29.19-3.21,31.33-2.38,2.56.99,8.96,3.47,14.3,9.88,5.58,6.69,6.77,13.76,7.49,18.05.91,5.43,1.76,10.48-.68,16.01-2.36,5.34-6.52,8.23-9.88,10.56-6.04,4.19-11.8,5.44-13.62,5.79-9.67,1.84-17.38-1.02-21.8-2.72-3.56-1.37-11.66-4.61-18.39-12.94-3.61-4.47-7.48-8.89-7.83-15.67-.4-7.69,3.88-13.41,5.45-15.33" fill="none" stroke="#f4f0ee" stroke-linecap="round" stroke-linejoin="round" stroke-width="2"/></svg>