<?xml version="1.0" encoding="UTF-8"?><svg id="b" xmlns="http://www.w3.org/2000/svg" width="137.02" height="920.93" viewBox="0 0 137.02 920.93"><path d="M133.97,36.7c2.1,12.88,1.1,22.77.26,31.29-4.89,49.66.11,712.66-2.71,731.65-1.64,10.99-3.16,21.11-6.16,34.77-4.4,20.1-8.95,34-13.63,45.73-3.35,8.37-8.79,20.7-19.79,31.29-5.31,5.1-10.15,8.1-15.25,7.49-3.55-.44-6.12-2.49-9.62-5.89-10.42-10.12-16.53-20.05-16.85-20.59-8.37-13.81-12.66-20.67-16.31-29.95-5.46-13.86-4.98-19.3-10.7-47.34-5.34-26.17-10.65-693.92-15.74-720.68-3.76-19.81-.7-7.78-5.08-38.25-.14-.98-1.28-8.93-.53-19.25.55-7.69,1.72-10.57,2.4-12.03,2.58-5.5,6.56-8.47,10.97-11.77,2.88-2.16,8.7-6.05,17.11-8.56,6.7-2,11.69-3.7,17.65-2.14,4.24,1.11,8.07,3.36,8.07,3.36,4.83,2.84,5.75,5.13,8.78,5.2,2.29.05,2.3-1.23,7.24-3.03,1.12-.4,1.79-.58,8.27-2.05,4.84-1.1,7.25-1.65,7.55-1.7,5.36-.99,10.29-.98,13.31-.71,1.86.17,13.04,1.1,21.13,9.09,6.65,6.57,8.08,14.61,9.63,24.07Z"/><path d="M66.84,11.03c-3.03-.07-3.95-2.36-8.78-5.2,0,0-3.83-2.25-8.07-3.36-5.96-1.56-10.95.14-17.65,2.14-8.41,2.51-14.23,6.4-17.11,8.56-4.41,3.3-8.39,6.27-10.97,11.77-.68,1.46-1.85,4.34-2.4,12.03-.75,10.32.39,18.27.53,19.25,4.38,30.47,1.32,18.44,5.08,38.25,5.09,26.76,10.4,694.51,15.74,720.68,5.72,28.04,5.24,33.48,10.7,47.34,3.65,9.28,7.94,16.14,16.31,29.95.32.54,6.43,10.47,16.85,20.59,3.5,3.4,6.07,5.45,9.62,5.89,5.1.61,9.94-2.39,15.25-7.49,11-10.59,16.44-22.92,19.79-31.29,4.68-11.73,9.23-25.63,13.63-45.73,3-13.66,4.52-23.78,6.16-34.77,2.82-18.99-2.18-681.99,2.71-731.65.84-8.52,1.84-18.41-.26-31.29-1.55-9.46-2.98-17.5-9.63-24.07-8.09-7.99-19.27-8.92-21.13-9.09-3.02-.27-7.95-.28-13.31.71-.3.05-2.71.6-7.55,1.7-6.48,1.47-7.15,1.65-8.27,2.05-4.94,1.8-4.95,3.08-7.24,3.03Z" fill="none" stroke="#f4f0ee" stroke-linecap="round" stroke-linejoin="round"/></svg>