<?xml version="1.0" encoding="UTF-8"?><svg id="b" xmlns="http://www.w3.org/2000/svg" width="136.48" height="254.39" viewBox="0 0 136.48 254.39"><path d="M133.75,36.11c2.11,12.88,1.11,22.76.27,31.29-4.89,49.65-3.59,45.99-6.42,64.98-1.63,10.98-3.15,21.11-6.15,34.76-4.41,20.11-8.95,34.01-13.64,45.73-3.34,8.37-8.78,20.71-19.79,31.29-5.3,5.11-10.14,8.11-15.24,7.49-3.55-.43-6.13-2.48-9.63-5.88-10.42-10.13-16.52-20.06-16.84-20.59-8.37-13.82-12.66-20.68-16.32-29.96-5.45-13.85-4.97-19.3-10.69-47.33-5.35-26.18-6.96-27.26-12.04-54.02-3.76-19.81-.71-7.77-5.08-38.24-.14-.98-1.28-8.93-.53-19.26.55-7.68,1.71-10.56,2.4-12.03,2.57-5.49,6.56-8.47,10.97-11.77,2.88-2.15,8.69-6.05,17.11-8.55,6.7-2,11.69-3.7,17.65-2.14,4.24,1.1,8.06,3.35,8.06,3.35,4.84,2.84,5.76,5.13,8.79,5.2,2.29.06,2.3-1.23,7.24-3.02,1.12-.41,1.79-.59,8.27-2.06,4.83-1.1,7.25-1.64,7.55-1.7,5.36-.99,10.29-.97,13.31-.7,1.86.16,13.04,1.1,21.13,9.09,6.65,6.57,8.08,14.61,9.62,24.07Z"/><path d="M66.63,10.43c-3.03-.07-3.95-2.36-8.79-5.2,0,0-3.82-2.25-8.06-3.35-5.96-1.56-10.95.14-17.65,2.14-8.42,2.5-14.23,6.4-17.11,8.55-4.41,3.3-8.4,6.28-10.97,11.77-.69,1.47-1.85,4.35-2.4,12.03-.75,10.33.39,18.28.53,19.26,4.37,30.47,1.32,18.43,5.08,38.24,5.08,26.76,6.69,27.84,12.04,54.02,5.72,28.03,5.24,33.48,10.69,47.33,3.66,9.28,7.95,16.14,16.32,29.96.32.53,6.42,10.46,16.84,20.59,3.5,3.4,6.08,5.45,9.63,5.88,5.1.62,9.94-2.38,15.24-7.49,11.01-10.58,16.45-22.92,19.79-31.29,4.69-11.72,9.23-25.62,13.64-45.73,3-13.65,4.52-23.78,6.15-34.76,2.83-18.99,1.53-15.33,6.42-64.98.84-8.53,1.84-18.41-.27-31.29-1.54-9.46-2.97-17.5-9.62-24.07-8.09-7.99-19.27-8.93-21.13-9.09-3.02-.27-7.95-.29-13.31.7-.3.06-2.72.6-7.55,1.7-6.48,1.47-7.15,1.65-8.27,2.06-4.94,1.79-4.95,3.08-7.24,3.02Z" fill="none" stroke="#f4f0ee" stroke-linecap="round" stroke-linejoin="round"/></svg>